PixelPanel-BlackSquare.ufo
<glyph name="hyphen" format="2">
  <advance width="600"/>
  <unicode hex="002D"/>
  <outline>
    <contour>
      <point x="407.25" y="395" type="line"/>
      <point x="492.75" y="395" type="line" smooth="yes"/>
      <point x="495" y="395"/>
      <point x="495" y="395"/>
      <point x="495" y="392.75" type="curve" smooth="yes"/>
      <point x="495" y="307.25" type="line" smooth="yes"/>
      <point x="495" y="305"/>
      <point x="495" y="305"/>
      <point x="492.75" y="305" type="curve" smooth="yes"/>
      <point x="407.25" y="305" type="line" smooth="yes"/>
      <point x="405" y="305"/>
      <point x="405" y="305"/>
      <point x="405" y="307.25" type="curve" smooth="yes"/>
      <point x="405" y="392.75" type="line" smooth="yes"/>
      <point x="405" y="395"/>
      <point x="405" y="395"/>
      <point x="407.25" y="395" type="curve"/>
    </contour>
    <contour>
      <point x="307.25" y="395" type="line"/>
      <point x="392.75" y="395" type="line" smooth="yes"/>
      <point x="395" y="395"/>
      <point x="395" y="395"/>
      <point x="395" y="392.75" type="curve" smooth="yes"/>
      <point x="395" y="307.25" type="line" smooth="yes"/>
      <point x="395" y="305"/>
      <point x="395" y="305"/>
      <point x="392.75" y="305" type="curve" smooth="yes"/>
      <point x="307.25" y="305" type="line" smooth="yes"/>
      <point x="305" y="305"/>
      <point x="305" y="305"/>
      <point x="305" y="307.25" type="curve" smooth="yes"/>
      <point x="305" y="392.75" type="line" smooth="yes"/>
      <point x="305" y="395"/>
      <point x="305" y="395"/>
      <point x="307.25" y="395" type="curve"/>
    </contour>
    <contour>
      <point x="207.25" y="395" type="line"/>
      <point x="292.75" y="395" type="line" smooth="yes"/>
      <point x="295" y="395"/>
      <point x="295" y="395"/>
      <point x="295" y="392.75" type="curve" smooth="yes"/>
      <point x="295" y="307.25" type="line" smooth="yes"/>
      <point x="295" y="305"/>
      <point x="295" y="305"/>
      <point x="292.75" y="305" type="curve" smooth="yes"/>
      <point x="207.25" y="305" type="line" smooth="yes"/>
      <point x="205" y="305"/>
      <point x="205" y="305"/>
      <point x="205" y="307.25" type="curve" smooth="yes"/>
      <point x="205" y="392.75" type="line" smooth="yes"/>
      <point x="205" y="395"/>
      <point x="205" y="395"/>
      <point x="207.25" y="395" type="curve"/>
    </contour>
    <contour>
      <point x="107.25" y="395" type="line"/>
      <point x="192.75" y="395" type="line" smooth="yes"/>
      <point x="195" y="395"/>
      <point x="195" y="395"/>
      <point x="195" y="392.75" type="curve" smooth="yes"/>
      <point x="195" y="307.25" type="line" smooth="yes"/>
      <point x="195" y="305"/>
      <point x="195" y="305"/>
      <point x="192.75" y="305" type="curve" smooth="yes"/>
      <point x="107.25" y="305" type="line" smooth="yes"/>
      <point x="105" y="305"/>
      <point x="105" y="305"/>
      <point x="105" y="307.25" type="curve" smooth="yes"/>
      <point x="105" y="392.75" type="line" smooth="yes"/>
      <point x="105" y="395"/>
      <point x="105" y="395"/>
      <point x="107.25" y="395" type="curve"/>
    </contour>
    <contour>
      <point x="7.25" y="395" type="line"/>
      <point x="92.75" y="395" type="line" smooth="yes"/>
      <point x="95" y="395"/>
      <point x="95" y="395"/>
      <point x="95" y="392.75" type="curve" smooth="yes"/>
      <point x="95" y="307.25" type="line" smooth="yes"/>
      <point x="95" y="305"/>
      <point x="95" y="305"/>
      <point x="92.75" y="305" type="curve" smooth="yes"/>
      <point x="7.25" y="305" type="line" smooth="yes"/>
      <point x="5" y="305"/>
      <point x="5" y="305"/>
      <point x="5" y="307.25" type="curve" smooth="yes"/>
      <point x="5" y="392.75" type="line" smooth="yes"/>
      <point x="5" y="395"/>
      <point x="5" y="395"/>
      <point x="7.25" y="395" type="curve"/>
    </contour>
  </outline>
</glyph>
<glyph name="semicolon" format="2">
  <advance width="600"/>
  <unicode hex="003B"/>
  <outline>
    <contour>
      <point x="107.25" y="-5" type="line"/>
      <point x="192.75" y="-5" type="line" smooth="yes"/>
      <point x="195" y="-5"/>
      <point x="195" y="-5"/>
      <point x="195" y="-7.25" type="curve" smooth="yes"/>
      <point x="195" y="-92.75" type="line" smooth="yes"/>
      <point x="195" y="-95"/>
      <point x="195" y="-95"/>
      <point x="192.75" y="-95" type="curve" smooth="yes"/>
      <point x="107.25" y="-95" type="line" smooth="yes"/>
      <point x="105" y="-95"/>
      <point x="105" y="-95"/>
      <point x="105" y="-92.75" type="curve" smooth="yes"/>
      <point x="105" y="-7.25" type="line" smooth="yes"/>
      <point x="105" y="-5"/>
      <point x="105" y="-5"/>
      <point x="107.25" y="-5" type="curve"/>
    </contour>
    <contour>
      <point x="207.25" y="95" type="line"/>
      <point x="292.75" y="95" type="line" smooth="yes"/>
      <point x="295" y="95"/>
      <point x="295" y="95"/>
      <point x="295" y="92.75" type="curve" smooth="yes"/>
      <point x="295" y="7.25" type="line" smooth="yes"/>
      <point x="295" y="5"/>
      <point x="295" y="5"/>
      <point x="292.75" y="5" type="curve" smooth="yes"/>
      <point x="207.25" y="5" type="line" smooth="yes"/>
      <point x="205" y="5"/>
      <point x="205" y="5"/>
      <point x="205" y="7.25" type="curve" smooth="yes"/>
      <point x="205" y="92.75" type="line" smooth="yes"/>
      <point x="205" y="95"/>
      <point x="205" y="95"/>
      <point x="207.25" y="95" type="curve"/>
    </contour>
    <contour>
      <point x="307.25" y="195" type="line"/>
      <point x="392.75" y="195" type="line" smooth="yes"/>
      <point x="395" y="195"/>
      <point x="395" y="195"/>
      <point x="395" y="192.75" type="curve" smooth="yes"/>
      <point x="395" y="107.25" type="line" smooth="yes"/>
      <point x="395" y="105"/>
      <point x="395" y="105"/>
      <point x="392.75" y="105" type="curve" smooth="yes"/>
      <point x="307.25" y="105" type="line" smooth="yes"/>
      <point x="305" y="105"/>
      <point x="305" y="105"/>
      <point x="305" y="107.25" type="curve" smooth="yes"/>
      <point x="305" y="192.75" type="line" smooth="yes"/>
      <point x="305" y="195"/>
      <point x="305" y="195"/>
      <point x="307.25" y="195" type="curve"/>
    </contour>
    <contour>
      <point x="207.25" y="195" type="line"/>
      <point x="292.75" y="195" type="line" smooth="yes"/>
      <point x="295" y="195"/>
      <point x="295" y="195"/>
      <point x="295" y="192.75" type="curve" smooth="yes"/>
      <point x="295" y="107.25" type="line" smooth="yes"/>
      <point x="295" y="105"/>
      <point x="295" y="105"/>
      <point x="292.75" y="105" type="curve" smooth="yes"/>
      <point x="207.25" y="105" type="line" smooth="yes"/>
      <point x="205" y="105"/>
      <point x="205" y="105"/>
      <point x="205" y="107.25" type="curve" smooth="yes"/>
      <point x="205" y="192.75" type="line" smooth="yes"/>
      <point x="205" y="195"/>
      <point x="205" y="195"/>
      <point x="207.25" y="195" type="curve"/>
    </contour>
    <contour>
      <point x="207.25" y="395" type="line"/>
      <point x="292.75" y="395" type="line" smooth="yes"/>
      <point x="295" y="395"/>
      <point x="295" y="395"/>
      <point x="295" y="392.75" type="curve" smooth="yes"/>
      <point x="295" y="307.25" type="line" smooth="yes"/>
      <point x="295" y="305"/>
      <point x="295" y="305"/>
      <point x="292.75" y="305" type="curve" smooth="yes"/>
      <point x="207.25" y="305" type="line" smooth="yes"/>
      <point x="205" y="305"/>
      <point x="205" y="305"/>
      <point x="205" y="307.25" type="curve" smooth="yes"/>
      <point x="205" y="392.75" type="line" smooth="yes"/>
      <point x="205" y="395"/>
      <point x="205" y="395"/>
      <point x="207.25" y="395" type="curve"/>
    </contour>
    <contour>
      <point x="307.25" y="495" type="line"/>
      <point x="392.75" y="495" type="line" smooth="yes"/>
      <point x="395" y="495"/>
      <point x="395" y="495"/>
      <point x="395" y="492.75" type="curve" smooth="yes"/>
      <point x="395" y="407.25" type="line" smooth="yes"/>
      <point x="395" y="405"/>
      <point x="395" y="405"/>
      <point x="392.75" y="405" type="curve" smooth="yes"/>
      <point x="307.25" y="405" type="line" smooth="yes"/>
      <point x="305" y="405"/>
      <point x="305" y="405"/>
      <point x="305" y="407.25" type="curve" smooth="yes"/>
      <point x="305" y="492.75" type="line" smooth="yes"/>
      <point x="305" y="495"/>
      <point x="305" y="495"/>
      <point x="307.25" y="495" type="curve"/>
    </contour>
    <contour>
      <point x="207.25" y="495" type="line"/>
      <point x="292.75" y="495" type="line" smooth="yes"/>
      <point x="295" y="495"/>
      <point x="295" y="495"/>
      <point x="295" y="492.75" type="curve" smooth="yes"/>
      <point x="295" y="407.25" type="line" smooth="yes"/>
      <point x="295" y="405"/>
      <point x="295" y="405"/>
      <point x="292.75" y="405" type="curve" smooth="yes"/>
      <point x="207.25" y="405" type="line" smooth="yes"/>
      <point x="205" y="405"/>
      <point x="205" y="405"/>
      <point x="205" y="407.25" type="curve" smooth="yes"/>
      <point x="205" y="492.75" type="line" smooth="yes"/>
      <point x="205" y="495"/>
      <point x="205" y="495"/>
      <point x="207.25" y="495" type="curve"/>
    </contour>
    <contour>
      <point x="107.25" y="495" type="line"/>
      <point x="192.75" y="495" type="line" smooth="yes"/>
      <point x="195" y="495"/>
      <point x="195" y="495"/>
      <point x="195" y="492.75" type="curve" smooth="yes"/>
      <point x="195" y="407.25" type="line" smooth="yes"/>
      <point x="195" y="405"/>
      <point x="195" y="405"/>
      <point x="192.75" y="405" type="curve" smooth="yes"/>
      <point x="107.25" y="405" type="line" smooth="yes"/>
      <point x="105" y="405"/>
      <point x="105" y="405"/>
      <point x="105" y="407.25" type="curve" smooth="yes"/>
      <point x="105" y="492.75" type="line" smooth="yes"/>
      <point x="105" y="495"/>
      <point x="105" y="495"/>
      <point x="107.25" y="495" type="curve"/>
    </contour>
    <contour>
      <point x="207.25" y="595" type="line"/>
      <point x="292.75" y="595" type="line" smooth="yes"/>
      <point x="295" y="595"/>
      <point x="295" y="595"/>
      <point x="295" y="592.75" type="curve" smooth="yes"/>
      <point x="295" y="507.25" type="line" smooth="yes"/>
      <point x="295" y="505"/>
      <point x="295" y="505"/>
      <point x="292.75" y="505" type="curve" smooth="yes"/>
      <point x="207.25" y="505" type="line" smooth="yes"/>
      <point x="205" y="505"/>
      <point x="205" y="505"/>
      <point x="205" y="507.25" type="curve" smooth="yes"/>
      <point x="205" y="592.75" type="line" smooth="yes"/>
      <point x="205" y="595"/>
      <point x="205" y="595"/>
      <point x="207.25" y="595" type="curve"/>
    </contour>
  </outline>
</glyph>
<glyph name="H" format="2">
  <advance width="600"/>
  <unicode hex="0048"/>
  <outline>
    <contour>
      <point x="407" y="95" type="line"/>
      <point x="493" y="95" type="line" smooth="yes"/>
      <point x="495" y="95"/>
      <point x="495" y="95"/>
      <point x="495" y="93" type="curve" smooth="yes"/>
      <point x="495" y="7" type="line" smooth="yes"/>
      <point x="495" y="5"/>
      <point x="495" y="5"/>
      <point x="493" y="5" type="curve" smooth="yes"/>
      <point x="407" y="5" type="line" smooth="yes"/>
      <point x="405" y="5"/>
      <point x="405" y="5"/>
      <point x="405" y="7" type="curve" smooth="yes"/>
      <point x="405" y="93" type="line" smooth="yes"/>
      <point x="405" y="95"/>
      <point x="405" y="95"/>
      <point x="407" y="95" type="curve"/>
    </contour>
    <contour>
      <point x="7" y="95" type="line"/>
      <point x="93" y="95" type="line" smooth="yes"/>
      <point x="95" y="95"/>
      <point x="95" y="95"/>
      <point x="95" y="93" type="curve" smooth="yes"/>
      <point x="95" y="7" type="line" smooth="yes"/>
      <point x="95" y="5"/>
      <point x="95" y="5"/>
      <point x="93" y="5" type="curve" smooth="yes"/>
      <point x="7" y="5" type="line" smooth="yes"/>
      <point x="5" y="5"/>
      <point x="5" y="5"/>
      <point x="5" y="7" type="curve" smooth="yes"/>
      <point x="5" y="93" type="line" smooth="yes"/>
      <point x="5" y="95"/>
      <point x="5" y="95"/>
      <point x="7" y="95" type="curve"/>
    </contour>
    <contour>
      <point x="407" y="195" type="line"/>
      <point x="493" y="195" type="line" smooth="yes"/>
      <point x="495" y="195"/>
      <point x="495" y="195"/>
      <point x="495" y="193" type="curve" smooth="yes"/>
      <point x="495" y="107" type="line" smooth="yes"/>
      <point x="495" y="105"/>
      <point x="495" y="105"/>
      <point x="493" y="105" type="curve" smooth="yes"/>
      <point x="407" y="105" type="line" smooth="yes"/>
      <point x="405" y="105"/>
      <point x="405" y="105"/>
      <point x="405" y="107" type="curve" smooth="yes"/>
      <point x="405" y="193" type="line" smooth="yes"/>
      <point x="405" y="195"/>
      <point x="405" y="195"/>
      <point x="407" y="195" type="curve"/>
    </contour>
    <contour>
      <point x="7" y="195" type="line"/>
      <point x="93" y="195" type="line" smooth="yes"/>
      <point x="95" y="195"/>
      <point x="95" y="195"/>
      <point x="95" y="193" type="curve" smooth="yes"/>
      <point x="95" y="107" type="line" smooth="yes"/>
      <point x="95" y="105"/>
      <point x="95" y="105"/>
      <point x="93" y="105" type="curve" smooth="yes"/>
      <point x="7" y="105" type="line" smooth="yes"/>
      <point x="5" y="105"/>
      <point x="5" y="105"/>
      <point x="5" y="107" type="curve" smooth="yes"/>
      <point x="5" y="193" type="line" smooth="yes"/>
      <point x="5" y="195"/>
      <point x="5" y="195"/>
      <point x="7" y="195" type="curve"/>
    </contour>
    <contour>
      <point x="407" y="295" type="line"/>
      <point x="493" y="295" type="line" smooth="yes"/>
      <point x="495" y="295"/>
      <point x="495" y="295"/>
      <point x="495" y="293" type="curve" smooth="yes"/>
      <point x="495" y="207" type="line" smooth="yes"/>
      <point x="495" y="205"/>
      <point x="495" y="205"/>
      <point x="493" y="205" type="curve" smooth="yes"/>
      <point x="407" y="205" type="line" smooth="yes"/>
      <point x="405" y="205"/>
      <point x="405" y="205"/>
      <point x="405" y="207" type="curve" smooth="yes"/>
      <point x="405" y="293" type="line" smooth="yes"/>
      <point x="405" y="295"/>
      <point x="405" y="295"/>
      <point x="407" y="295" type="curve"/>
    </contour>
    <contour>
      <point x="7" y="295" type="line"/>
      <point x="93" y="295" type="line" smooth="yes"/>
      <point x="95" y="295"/>
      <point x="95" y="295"/>
      <point x="95" y="293" type="curve" smooth="yes"/>
      <point x="95" y="207" type="line" smooth="yes"/>
      <point x="95" y="205"/>
      <point x="95" y="205"/>
      <point x="93" y="205" type="curve" smooth="yes"/>
      <point x="7" y="205" type="line" smooth="yes"/>
      <point x="5" y="205"/>
      <point x="5" y="205"/>
      <point x="5" y="207" type="curve" smooth="yes"/>
      <point x="5" y="293" type="line" smooth="yes"/>
      <point x="5" y="295"/>
      <point x="5" y="295"/>
      <point x="7" y="295" type="curve"/>
    </contour>
    <contour>
      <point x="407" y="395" type="line"/>
      <point x="493" y="395" type="line" smooth="yes"/>
      <point x="495" y="395"/>
      <point x="495" y="395"/>
      <point x="495" y="393" type="curve" smooth="yes"/>
      <point x="495" y="307" type="line" smooth="yes"/>
      <point x="495" y="305"/>
      <point x="495" y="305"/>
      <point x="493" y="305" type="curve" smooth="yes"/>
      <point x="407" y="305" type="line" smooth="yes"/>
      <point x="405" y="305"/>
      <point x="405" y="305"/>
      <point x="405" y="307" type="curve" smooth="yes"/>
      <point x="405" y="393" type="line" smooth="yes"/>
      <point x="405" y="395"/>
      <point x="405" y="395"/>
      <point x="407" y="395" type="curve"/>
    </contour>
    <contour>
      <point x="307" y="395" type="line"/>
      <point x="393" y="395" type="line" smooth="yes"/>
      <point x="395" y="395"/>
      <point x="395" y="395"/>
      <point x="395" y="393" type="curve" smooth="yes"/>
      <point x="395" y="307" type="line" smooth="yes"/>
      <point x="395" y="305"/>
      <point x="395" y="305"/>
      <point x="393" y="305" type="curve" smooth="yes"/>
      <point x="307" y="305" type="line" smooth="yes"/>
      <point x="305" y="305"/>
      <point x="305" y="305"/>
      <point x="305" y="307" type="curve" smooth="yes"/>
      <point x="305" y="393" type="line" smooth="yes"/>
      <point x="305" y="395"/>
      <point x="305" y="395"/>
      <point x="307" y="395" type="curve"/>
    </contour>
    <contour>
      <point x="207" y="395" type="line"/>
      <point x="293" y="395" type="line" smooth="yes"/>
      <point x="295" y="395"/>
      <point x="295" y="395"/>
      <point x="295" y="393" type="curve" smooth="yes"/>
      <point x="295" y="307" type="line" smooth="yes"/>
      <point x="295" y="305"/>
      <point x="295" y="305"/>
      <point x="293" y="305" type="curve" smooth="yes"/>
      <point x="207" y="305" type="line" smooth="yes"/>
      <point x="205" y="305"/>
      <point x="205" y="305"/>
      <point x="205" y="307" type="curve" smooth="yes"/>
      <point x="205" y="393" type="line" smooth="yes"/>
      <point x="205" y="395"/>
      <point x="205" y="395"/>
      <point x="207" y="395" type="curve"/>
    </contour>
    <contour>
      <point x="107" y="395" type="line"/>
      <point x="193" y="395" type="line" smooth="yes"/>
      <point x="195" y="395"/>
      <point x="195" y="395"/>
      <point x="195" y="393" type="curve" smooth="yes"/>
      <point x="195" y="307" type="line" smooth="yes"/>
      <point x="195" y="305"/>
      <point x="195" y="305"/>
      <point x="193" y="305" type="curve" smooth="yes"/>
      <point x="107" y="305" type="line" smooth="yes"/>
      <point x="105" y="305"/>
      <point x="105" y="305"/>
      <point x="105" y="307" type="curve" smooth="yes"/>
      <point x="105" y="393" type="line" smooth="yes"/>
      <point x="105" y="395"/>
      <point x="105" y="395"/>
      <point x="107" y="395" type="curve"/>
    </contour>
    <contour>
      <point x="7" y="395" type="line"/>
      <point x="93" y="395" type="line" smooth="yes"/>
      <point x="95" y="395"/>
      <point x="95" y="395"/>
      <point x="95" y="393" type="curve" smooth="yes"/>
      <point x="95" y="307" type="line" smooth="yes"/>
      <point x="95" y="305"/>
      <point x="95" y="305"/>
      <point x="93" y="305" type="curve" smooth="yes"/>
      <point x="7" y="305" type="line" smooth="yes"/>
      <point x="5" y="305"/>
      <point x="5" y="305"/>
      <point x="5" y="307" type="curve" smooth="yes"/>
      <point x="5" y="393" type="line" smooth="yes"/>
      <point x="5" y="395"/>
      <point x="5" y="395"/>
      <point x="7" y="395" type="curve"/>
    </contour>
    <contour>
      <point x="407" y="495" type="line"/>
      <point x="493" y="495" type="line" smooth="yes"/>
      <point x="495" y="495"/>
      <point x="495" y="495"/>
      <point x="495" y="493" type="curve" smooth="yes"/>
      <point x="495" y="407" type="line" smooth="yes"/>
      <point x="495" y="405"/>
      <point x="495" y="405"/>
      <point x="493" y="405" type="curve" smooth="yes"/>
      <point x="407" y="405" type="line" smooth="yes"/>
      <point x="405" y="405"/>
      <point x="405" y="405"/>
      <point x="405" y="407" type="curve" smooth="yes"/>
      <point x="405" y="493" type="line" smooth="yes"/>
      <point x="405" y="495"/>
      <point x="405" y="495"/>
      <point x="407" y="495" type="curve"/>
    </contour>
    <contour>
      <point x="7" y="495" type="line"/>
      <point x="93" y="495" type="line" smooth="yes"/>
      <point x="95" y="495"/>
      <point x="95" y="495"/>
      <point x="95" y="493" type="curve" smooth="yes"/>
      <point x="95" y="407" type="line" smooth="yes"/>
      <point x="95" y="405"/>
      <point x="95" y="405"/>
      <point x="93" y="405" type="curve" smooth="yes"/>
      <point x="7" y="405" type="line" smooth="yes"/>
      <point x="5" y="405"/>
      <point x="5" y="405"/>
      <point x="5" y="407" type="curve" smooth="yes"/>
      <point x="5" y="493" type="line" smooth="yes"/>
      <point x="5" y="495"/>
      <point x="5" y="495"/>
      <point x="7" y="495" type="curve"/>
    </contour>
    <contour>
      <point x="407" y="595" type="line"/>
      <point x="493" y="595" type="line" smooth="yes"/>
      <point x="495" y="595"/>
      <point x="495" y="595"/>
      <point x="495" y="593" type="curve" smooth="yes"/>
      <point x="495" y="507" type="line" smooth="yes"/>
      <point x="495" y="505"/>
      <point x="495" y="505"/>
      <point x="493" y="505" type="curve" smooth="yes"/>
      <point x="407" y="505" type="line" smooth="yes"/>
      <point x="405" y="505"/>
      <point x="405" y="505"/>
      <point x="405" y="507" type="curve" smooth="yes"/>
      <point x="405" y="593" type="line" smooth="yes"/>
      <point x="405" y="595"/>
      <point x="405" y="595"/>
      <point x="407" y="595" type="curve"/>
    </contour>
    <contour>
      <point x="7" y="595" type="line"/>
      <point x="93" y="595" type="line" smooth="yes"/>
      <point x="95" y="595"/>
      <point x="95" y="595"/>
      <point x="95" y="593" type="curve" smooth="yes"/>
      <point x="95" y="507" type="line" smooth="yes"/>
      <point x="95" y="505"/>
      <point x="95" y="505"/>
      <point x="93" y="505" type="curve" smooth="yes"/>
      <point x="7" y="505" type="line" smooth="yes"/>
      <point x="5" y="505"/>
      <point x="5" y="505"/>
      <point x="5" y="507" type="curve" smooth="yes"/>
      <point x="5" y="593" type="line" smooth="yes"/>
      <point x="5" y="595"/>
      <point x="5" y="595"/>
      <point x="7" y="595" type="curve"/>
    </contour>
    <contour>
      <point x="407" y="695" type="line"/>
      <point x="493" y="695" type="line" smooth="yes"/>
      <point x="495" y="695"/>
      <point x="495" y="695"/>
      <point x="495" y="693" type="curve" smooth="yes"/>
      <point x="495" y="607" type="line" smooth="yes"/>
      <point x="495" y="605"/>
      <point x="495" y="605"/>
      <point x="493" y="605" type="curve" smooth="yes"/>
      <point x="407" y="605" type="line" smooth="yes"/>
      <point x="405" y="605"/>
      <point x="405" y="605"/>
      <point x="405" y="607" type="curve" smooth="yes"/>
      <point x="405" y="693" type="line" smooth="yes"/>
      <point x="405" y="695"/>
      <point x="405" y="695"/>
      <point x="407" y="695" type="curve"/>
    </contour>
    <contour>
      <point x="7" y="695" type="line"/>
      <point x="93" y="695" type="line" smooth="yes"/>
      <point x="95" y="695"/>
      <point x="95" y="695"/>
      <point x="95" y="693" type="curve" smooth="yes"/>
      <point x="95" y="607" type="line" smooth="yes"/>
      <point x="95" y="605"/>
      <point x="95" y="605"/>
      <point x="93" y="605" type="curve" smooth="yes"/>
      <point x="7" y="605" type="line" smooth="yes"/>
      <point x="5" y="605"/>
      <point x="5" y="605"/>
      <point x="5" y="607" type="curve" smooth="yes"/>
      <point x="5" y="693" type="line" smooth="yes"/>
      <point x="5" y="695"/>
      <point x="5" y="695"/>
      <point x="7" y="695" type="curve"/>
    </contour>
  </outline>
</glyph>
<glyph name="bracketright" format="2">
  <advance width="600"/>
  <unicode hex="005D"/>
  <outline>
    <contour>
      <point x="307" y="95" type="line"/>
      <point x="393" y="95" type="line" smooth="yes"/>
      <point x="395" y="95"/>
      <point x="395" y="95"/>
      <point x="395" y="93" type="curve" smooth="yes"/>
      <point x="395" y="7" type="line" smooth="yes"/>
      <point x="395" y="5"/>
      <point x="395" y="5"/>
      <point x="393" y="5" type="curve" smooth="yes"/>
      <point x="307" y="5" type="line" smooth="yes"/>
      <point x="305" y="5"/>
      <point x="305" y="5"/>
      <point x="305" y="7" type="curve" smooth="yes"/>
      <point x="305" y="93" type="line" smooth="yes"/>
      <point x="305" y="95"/>
      <point x="305" y="95"/>
      <point x="307" y="95" type="curve"/>
    </contour>
    <contour>
      <point x="207" y="95" type="line"/>
      <point x="293" y="95" type="line" smooth="yes"/>
      <point x="295" y="95"/>
      <point x="295" y="95"/>
      <point x="295" y="93" type="curve" smooth="yes"/>
      <point x="295" y="7" type="line" smooth="yes"/>
      <point x="295" y="5"/>
      <point x="295" y="5"/>
      <point x="293" y="5" type="curve" smooth="yes"/>
      <point x="207" y="5" type="line" smooth="yes"/>
      <point x="205" y="5"/>
      <point x="205" y="5"/>
      <point x="205" y="7" type="curve" smooth="yes"/>
      <point x="205" y="93" type="line" smooth="yes"/>
      <point x="205" y="95"/>
      <point x="205" y="95"/>
      <point x="207" y="95" type="curve"/>
    </contour>
    <contour>
      <point x="107" y="95" type="line"/>
      <point x="193" y="95" type="line" smooth="yes"/>
      <point x="195" y="95"/>
      <point x="195" y="95"/>
      <point x="195" y="93" type="curve" smooth="yes"/>
      <point x="195" y="7" type="line" smooth="yes"/>
      <point x="195" y="5"/>
      <point x="195" y="5"/>
      <point x="193" y="5" type="curve" smooth="yes"/>
      <point x="107" y="5" type="line" smooth="yes"/>
      <point x="105" y="5"/>
      <point x="105" y="5"/>
      <point x="105" y="7" type="curve" smooth="yes"/>
      <point x="105" y="93" type="line" smooth="yes"/>
      <point x="105" y="95"/>
      <point x="105" y="95"/>
      <point x="107" y="95" type="curve"/>
    </contour>
    <contour>
      <point x="307" y="195" type="line"/>
      <point x="393" y="195" type="line" smooth="yes"/>
      <point x="395" y="195"/>
      <point x="395" y="195"/>
      <point x="395" y="193" type="curve" smooth="yes"/>
      <point x="395" y="107" type="line" smooth="yes"/>
      <point x="395" y="105"/>
      <point x="395" y="105"/>
      <point x="393" y="105" type="curve" smooth="yes"/>
      <point x="307" y="105" type="line" smooth="yes"/>
      <point x="305" y="105"/>
      <point x="305" y="105"/>
      <point x="305" y="107" type="curve" smooth="yes"/>
      <point x="305" y="193" type="line" smooth="yes"/>
      <point x="305" y="195"/>
      <point x="305" y="195"/>
      <point x="307" y="195" type="curve"/>
    </contour>
    <contour>
      <point x="307" y="295" type="line"/>
      <point x="393" y="295" type="line" smooth="yes"/>
      <point x="395" y="295"/>
      <point x="395" y="295"/>
      <point x="395" y="293" type="curve" smooth="yes"/>
      <point x="395" y="207" type="line" smooth="yes"/>
      <point x="395" y="205"/>
      <point x="395" y="205"/>
      <point x="393" y="205" type="curve" smooth="yes"/>
      <point x="307" y="205" type="line" smooth="yes"/>
      <point x="305" y="205"/>
      <point x="305" y="205"/>
      <point x="305" y="207" type="curve" smooth="yes"/>
      <point x="305" y="293" type="line" smooth="yes"/>
      <point x="305" y="295"/>
      <point x="305" y="295"/>
      <point x="307" y="295" type="curve"/>
    </contour>
    <contour>
      <point x="307" y="395" type="line"/>
      <point x="393" y="395" type="line" smooth="yes"/>
      <point x="395" y="395"/>
      <point x="395" y="395"/>
      <point x="395" y="393" type="curve" smooth="yes"/>
      <point x="395" y="307" type="line" smooth="yes"/>
      <point x="395" y="305"/>
      <point x="395" y="305"/>
      <point x="393" y="305" type="curve" smooth="yes"/>
      <point x="307" y="305" type="line" smooth="yes"/>
      <point x="305" y="305"/>
      <point x="305" y="305"/>
      <point x="305" y="307" type="curve" smooth="yes"/>
      <point x="305" y="393" type="line" smooth="yes"/>
      <point x="305" y="395"/>
      <point x="305" y="395"/>
      <point x="307" y="395" type="curve"/>
    </contour>
    <contour>
      <point x="307" y="495" type="line"/>
      <point x="393" y="495" type="line" smooth="yes"/>
      <point x="395" y="495"/>
      <point x="395" y="495"/>
      <point x="395" y="493" type="curve" smooth="yes"/>
      <point x="395" y="407" type="line" smooth="yes"/>
      <point x="395" y="405"/>
      <point x="395" y="405"/>
      <point x="393" y="405" type="curve" smooth="yes"/>
      <point x="307" y="405" type="line" smooth="yes"/>
      <point x="305" y="405"/>
      <point x="305" y="405"/>
      <point x="305" y="407" type="curve" smooth="yes"/>
      <point x="305" y="493" type="line" smooth="yes"/>
      <point x="305" y="495"/>
      <point x="305" y="495"/>
      <point x="307" y="495" type="curve"/>
    </contour>
    <contour>
      <point x="307" y="595" type="line"/>
      <point x="393" y="595" type="line" smooth="yes"/>
      <point x="395" y="595"/>
      <point x="395" y="595"/>
      <point x="395" y="593" type="curve" smooth="yes"/>
      <point x="395" y="507" type="line" smooth="yes"/>
      <point x="395" y="505"/>
      <point x="395" y="505"/>
      <point x="393" y="505" type="curve" smooth="yes"/>
      <point x="307" y="505" type="line" smooth="yes"/>
      <point x="305" y="505"/>
      <point x="305" y="505"/>
      <point x="305" y="507" type="curve" smooth="yes"/>
      <point x="305" y="593" type="line" smooth="yes"/>
      <point x="305" y="595"/>
      <point x="305" y="595"/>
      <point x="307" y="595" type="curve"/>
    </contour>
    <contour>
      <point x="307" y="695" type="line"/>
      <point x="393" y="695" type="line" smooth="yes"/>
      <point x="395" y="695"/>
      <point x="395" y="695"/>
      <point x="395" y="693" type="curve" smooth="yes"/>
      <point x="395" y="607" type="line" smooth="yes"/>
      <point x="395" y="605"/>
      <point x="395" y="605"/>
      <point x="393" y="605" type="curve" smooth="yes"/>
      <point x="307" y="605" type="line" smooth="yes"/>
      <point x="305" y="605"/>
      <point x="305" y="605"/>
      <point x="305" y="607" type="curve" smooth="yes"/>
      <point x="305" y="693" type="line" smooth="yes"/>
      <point x="305" y="695"/>
      <point x="305" y="695"/>
      <point x="307" y="695" type="curve"/>
    </contour>
    <contour>
      <point x="207" y="695" type="line"/>
      <point x="293" y="695" type="line" smooth="yes"/>
      <point x="295" y="695"/>
      <point x="295" y="695"/>
      <point x="295" y="693" type="curve" smooth="yes"/>
      <point x="295" y="607" type="line" smooth="yes"/>
      <point x="295" y="605"/>
      <point x="295" y="605"/>
      <point x="293" y="605" type="curve" smooth="yes"/>
      <point x="207" y="605" type="line" smooth="yes"/>
      <point x="205" y="605"/>
      <point x="205" y="605"/>
      <point x="205" y="607" type="curve" smooth="yes"/>
      <point x="205" y="693" type="line" smooth="yes"/>
      <point x="205" y="695"/>
      <point x="205" y="695"/>
      <point x="207" y="695" type="curve"/>
    </contour>
    <contour>
      <point x="107" y="695" type="line"/>
      <point x="193" y="695" type="line" smooth="yes"/>
      <point x="195" y="695"/>
      <point x="195" y="695"/>
      <point x="195" y="693" type="curve" smooth="yes"/>
      <point x="195" y="607" type="line" smooth="yes"/>
      <point x="195" y="605"/>
      <point x="195" y="605"/>
      <point x="193" y="605" type="curve" smooth="yes"/>
      <point x="107" y="605" type="line" smooth="yes"/>
      <point x="105" y="605"/>
      <point x="105" y="605"/>
      <point x="105" y="607" type="curve" smooth="yes"/>
      <point x="105" y="693" type="line" smooth="yes"/>
      <point x="105" y="695"/>
      <point x="105" y="695"/>
      <point x="107" y="695" type="curve"/>
    </contour>
  </outline>
</glyph>
<glyph name="asciicircum" format="2">
  <advance width="600"/>
  <unicode hex="005E"/>
  <outline>
    <contour>
      <point x="407" y="495" type="line"/>
      <point x="493" y="495" type="line" smooth="yes"/>
      <point x="495" y="495"/>
      <point x="495" y="495"/>
      <point x="495" y="493" type="curve" smooth="yes"/>
      <point x="495" y="407" type="line" smooth="yes"/>
      <point x="495" y="405"/>
      <point x="495" y="405"/>
      <point x="493" y="405" type="curve" smooth="yes"/>
      <point x="407" y="405" type="line" smooth="yes"/>
      <point x="405" y="405"/>
      <point x="405" y="405"/>
      <point x="405" y="407" type="curve" smooth="yes"/>
      <point x="405" y="493" type="line" smooth="yes"/>
      <point x="405" y="495"/>
      <point x="405" y="495"/>
      <point x="407" y="495" type="curve"/>
    </contour>
    <contour>
      <point x="7" y="495" type="line"/>
      <point x="93" y="495" type="line" smooth="yes"/>
      <point x="95" y="495"/>
      <point x="95" y="495"/>
      <point x="95" y="493" type="curve" smooth="yes"/>
      <point x="95" y="407" type="line" smooth="yes"/>
      <point x="95" y="405"/>
      <point x="95" y="405"/>
      <point x="93" y="405" type="curve" smooth="yes"/>
      <point x="7" y="405" type="line" smooth="yes"/>
      <point x="5" y="405"/>
      <point x="5" y="405"/>
      <point x="5" y="407" type="curve" smooth="yes"/>
      <point x="5" y="493" type="line" smooth="yes"/>
      <point x="5" y="495"/>
      <point x="5" y="495"/>
      <point x="7" y="495" type="curve"/>
    </contour>
    <contour>
      <point x="307" y="595" type="line"/>
      <point x="393" y="595" type="line" smooth="yes"/>
      <point x="395" y="595"/>
      <point x="395" y="595"/>
      <point x="395" y="593" type="curve" smooth="yes"/>
      <point x="395" y="507" type="line" smooth="yes"/>
      <point x="395" y="505"/>
      <point x="395" y="505"/>
      <point x="393" y="505" type="curve" smooth="yes"/>
      <point x="307" y="505" type="line" smooth="yes"/>
      <point x="305" y="505"/>
      <point x="305" y="505"/>
      <point x="305" y="507" type="curve" smooth="yes"/>
      <point x="305" y="593" type="line" smooth="yes"/>
      <point x="305" y="595"/>
      <point x="305" y="595"/>
      <point x="307" y="595" type="curve"/>
    </contour>
    <contour>
      <point x="107" y="595" type="line"/>
      <point x="193" y="595" type="line" smooth="yes"/>
      <point x="195" y="595"/>
      <point x="195" y="595"/>
      <point x="195" y="593" type="curve" smooth="yes"/>
      <point x="195" y="507" type="line" smooth="yes"/>
      <point x="195" y="505"/>
      <point x="195" y="505"/>
      <point x="193" y="505" type="curve" smooth="yes"/>
      <point x="107" y="505" type="line" smooth="yes"/>
      <point x="105" y="505"/>
      <point x="105" y="505"/>
      <point x="105" y="507" type="curve" smooth="yes"/>
      <point x="105" y="593" type="line" smooth="yes"/>
      <point x="105" y="595"/>
      <point x="105" y="595"/>
      <point x="107" y="595" type="curve"/>
    </contour>
    <contour>
      <point x="207" y="695" type="line"/>
      <point x="293" y="695" type="line" smooth="yes"/>
      <point x="295" y="695"/>
      <point x="295" y="695"/>
      <point x="295" y="693" type="curve" smooth="yes"/>
      <point x="295" y="607" type="line" smooth="yes"/>
      <point x="295" y="605"/>
      <point x="295" y="605"/>
      <point x="293" y="605" type="curve" smooth="yes"/>
      <point x="207" y="605" type="line" smooth="yes"/>
      <point x="205" y="605"/>
      <point x="205" y="605"/>
      <point x="205" y="607" type="curve" smooth="yes"/>
      <point x="205" y="693" type="line" smooth="yes"/>
      <point x="205" y="695"/>
      <point x="205" y="695"/>
      <point x="207" y="695" type="curve"/>
    </contour>
  </outline>
</glyph>
<glyph name="underscore" format="2">
  <advance width="600"/>
  <unicode hex="005F"/>
  <outline>
    <contour>
      <point x="407.25" y="-5" type="line"/>
      <point x="492.75" y="-5" type="line" smooth="yes"/>
      <point x="495" y="-5"/>
      <point x="495" y="-5"/>
      <point x="495" y="-7.25" type="curve" smooth="yes"/>
      <point x="495" y="-92.75" type="line" smooth="yes"/>
      <point x="495" y="-95"/>
      <point x="495" y="-95"/>
      <point x="492.75" y="-95" type="curve" smooth="yes"/>
      <point x="407.25" y="-95" type="line" smooth="yes"/>
      <point x="405" y="-95"/>
      <point x="405" y="-95"/>
      <point x="405" y="-92.75" type="curve" smooth="yes"/>
      <point x="405" y="-7.25" type="line" smooth="yes"/>
      <point x="405" y="-5"/>
      <point x="405" y="-5"/>
      <point x="407.25" y="-5" type="curve"/>
    </contour>
    <contour>
      <point x="307.25" y="-5" type="line"/>
      <point x="392.75" y="-5" type="line" smooth="yes"/>
      <point x="395" y="-5"/>
      <point x="395" y="-5"/>
      <point x="395" y="-7.25" type="curve" smooth="yes"/>
      <point x="395" y="-92.75" type="line" smooth="yes"/>
      <point x="395" y="-95"/>
      <point x="395" y="-95"/>
      <point x="392.75" y="-95" type="curve" smooth="yes"/>
      <point x="307.25" y="-95" type="line" smooth="yes"/>
      <point x="305" y="-95"/>
      <point x="305" y="-95"/>
      <point x="305" y="-92.75" type="curve" smooth="yes"/>
      <point x="305" y="-7.25" type="line" smooth="yes"/>
      <point x="305" y="-5"/>
      <point x="305" y="-5"/>
      <point x="307.25" y="-5" type="curve"/>
    </contour>
    <contour>
      <point x="207.25" y="-5" type="line"/>
      <point x="292.75" y="-5" type="line" smooth="yes"/>
      <point x="295" y="-5"/>
      <point x="295" y="-5"/>
      <point x="295" y="-7.25" type="curve" smooth="yes"/>
      <point x="295" y="-92.75" type="line" smooth="yes"/>
      <point x="295" y="-95"/>
      <point x="295" y="-95"/>
      <point x="292.75" y="-95" type="curve" smooth="yes"/>
      <point x="207.25" y="-95" type="line" smooth="yes"/>
      <point x="205" y="-95"/>
      <point x="205" y="-95"/>
      <point x="205" y="-92.75" type="curve" smooth="yes"/>
      <point x="205" y="-7.25" type="line" smooth="yes"/>
      <point x="205" y="-5"/>
      <point x="205" y="-5"/>
      <point x="207.25" y="-5" type="curve"/>
    </contour>
    <contour>
      <point x="107.25" y="-5" type="line"/>
      <point x="192.75" y="-5" type="line" smooth="yes"/>
      <point x="195" y="-5"/>
      <point x="195" y="-5"/>
      <point x="195" y="-7.25" type="curve" smooth="yes"/>
      <point x="195" y="-92.75" type="line" smooth="yes"/>
      <point x="195" y="-95"/>
      <point x="195" y="-95"/>
      <point x="192.75" y="-95" type="curve" smooth="yes"/>
      <point x="107.25" y="-95" type="line" smooth="yes"/>
      <point x="105" y="-95"/>
      <point x="105" y="-95"/>
      <point x="105" y="-92.75" type="curve" smooth="yes"/>
      <point x="105" y="-7.25" type="line" smooth="yes"/>
      <point x="105" y="-5"/>
      <point x="105" y="-5"/>
      <point x="107.25" y="-5" type="curve"/>
    </contour>
    <contour>
      <point x="7.25" y="-5" type="line"/>
      <point x="92.75" y="-5" type="line" smooth="yes"/>
      <point x="95" y="-5"/>
      <point x="95" y="-5"/>
      <point x="95" y="-7.25" type="curve" smooth="yes"/>
      <point x="95" y="-92.75" type="line" smooth="yes"/>
      <point x="95" y="-95"/>
      <point x="95" y="-95"/>
      <point x="92.75" y="-95" type="curve" smooth="yes"/>
      <point x="7.25" y="-95" type="line" smooth="yes"/>
      <point x="5" y="-95"/>
      <point x="5" y="-95"/>
      <point x="5" y="-92.75" type="curve" smooth="yes"/>
      <point x="5" y="-7.25" type="line" smooth="yes"/>
      <point x="5" y="-5"/>
      <point x="5" y="-5"/>
      <point x="7.25" y="-5" type="curve"/>
    </contour>
  </outline>
</glyph>
<glyph name="grave" format="2">
  <advance width="600"/>
  <unicode hex="0060"/>
  <outline>
    <contour>
      <point x="307.25" y="695" type="line"/>
      <point x="392.75" y="695" type="line" smooth="yes"/>
      <point x="395" y="695"/>
      <point x="395" y="695"/>
      <point x="395" y="692.75" type="curve" smooth="yes"/>
      <point x="395" y="607.25" type="line" smooth="yes"/>
      <point x="395" y="605"/>
      <point x="395" y="605"/>
      <point x="392.75" y="605" type="curve" smooth="yes"/>
      <point x="307.25" y="605" type="line" smooth="yes"/>
      <point x="305" y="605"/>
      <point x="305" y="605"/>
      <point x="305" y="607.25" type="curve" smooth="yes"/>
      <point x="305" y="692.75" type="line" smooth="yes"/>
      <point x="305" y="695"/>
      <point x="305" y="695"/>
      <point x="307.25" y="695" type="curve"/>
    </contour>
    <contour>
      <point x="207.25" y="795" type="line"/>
      <point x="292.75" y="795" type="line" smooth="yes"/>
      <point x="295" y="795"/>
      <point x="295" y="795"/>
      <point x="295" y="792.75" type="curve" smooth="yes"/>
      <point x="295" y="707.25" type="line" smooth="yes"/>
      <point x="295" y="705"/>
      <point x="295" y="705"/>
      <point x="292.75" y="705" type="curve" smooth="yes"/>
      <point x="207.25" y="705" type="line" smooth="yes"/>
      <point x="205" y="705"/>
      <point x="205" y="705"/>
      <point x="205" y="707.25" type="curve" smooth="yes"/>
      <point x="205" y="792.75" type="line" smooth="yes"/>
      <point x="205" y="795"/>
      <point x="205" y="795"/>
      <point x="207.25" y="795" type="curve"/>
    </contour>
  </outline>
</glyph>
<glyph name="bar" format="2">
  <advance width="600"/>
  <unicode hex="007C"/>
  <outline>
    <contour>
      <point x="207" y="95" type="line"/>
      <point x="293" y="95" type="line" smooth="yes"/>
      <point x="295" y="95"/>
      <point x="295" y="95"/>
      <point x="295" y="93" type="curve" smooth="yes"/>
      <point x="295" y="7" type="line" smooth="yes"/>
      <point x="295" y="5"/>
      <point x="295" y="5"/>
      <point x="293" y="5" type="curve" smooth="yes"/>
      <point x="207" y="5" type="line" smooth="yes"/>
      <point x="205" y="5"/>
      <point x="205" y="5"/>
      <point x="205" y="7" type="curve" smooth="yes"/>
      <point x="205" y="93" type="line" smooth="yes"/>
      <point x="205" y="95"/>
      <point x="205" y="95"/>
      <point x="207" y="95" type="curve"/>
    </contour>
    <contour>
      <point x="207" y="195" type="line"/>
      <point x="293" y="195" type="line" smooth="yes"/>
      <point x="295" y="195"/>
      <point x="295" y="195"/>
      <point x="295" y="193" type="curve" smooth="yes"/>
      <point x="295" y="107" type="line" smooth="yes"/>
      <point x="295" y="105"/>
      <point x="295" y="105"/>
      <point x="293" y="105" type="curve" smooth="yes"/>
      <point x="207" y="105" type="line" smooth="yes"/>
      <point x="205" y="105"/>
      <point x="205" y="105"/>
      <point x="205" y="107" type="curve" smooth="yes"/>
      <point x="205" y="193" type="line" smooth="yes"/>
      <point x="205" y="195"/>
      <point x="205" y="195"/>
      <point x="207" y="195" type="curve"/>
    </contour>
    <contour>
      <point x="207" y="295" type="line"/>
      <point x="293" y="295" type="line" smooth="yes"/>
      <point x="295" y="295"/>
      <point x="295" y="295"/>
      <point x="295" y="293" type="curve" smooth="yes"/>
      <point x="295" y="207" type="line" smooth="yes"/>
      <point x="295" y="205"/>
      <point x="295" y="205"/>
      <point x="293" y="205" type="curve" smooth="yes"/>
      <point x="207" y="205" type="line" smooth="yes"/>
      <point x="205" y="205"/>
      <point x="205" y="205"/>
      <point x="205" y="207" type="curve" smooth="yes"/>
      <point x="205" y="293" type="line" smooth="yes"/>
      <point x="205" y="295"/>
      <point x="205" y="295"/>
      <point x="207" y="295" type="curve"/>
    </contour>
    <contour>
      <point x="207" y="395" type="line"/>
      <point x="293" y="395" type="line" smooth="yes"/>
      <point x="295" y="395"/>
      <point x="295" y="395"/>
      <point x="295" y="393" type="curve" smooth="yes"/>
      <point x="295" y="307" type="line" smooth="yes"/>
      <point x="295" y="305"/>
      <point x="295" y="305"/>
      <point x="293" y="305" type="curve" smooth="yes"/>
      <point x="207" y="305" type="line" smooth="yes"/>
      <point x="205" y="305"/>
      <point x="205" y="305"/>
      <point x="205" y="307" type="curve" smooth="yes"/>
      <point x="205" y="393" type="line" smooth="yes"/>
      <point x="205" y="395"/>
      <point x="205" y="395"/>
      <point x="207" y="395" type="curve"/>
    </contour>
    <contour>
      <point x="207" y="495" type="line"/>
      <point x="293" y="495" type="line" smooth="yes"/>
      <point x="295" y="495"/>
      <point x="295" y="495"/>
      <point x="295" y="493" type="curve" smooth="yes"/>
      <point x="295" y="407" type="line" smooth="yes"/>
      <point x="295" y="405"/>
      <point x="295" y="405"/>
      <point x="293" y="405" type="curve" smooth="yes"/>
      <point x="207" y="405" type="line" smooth="yes"/>
      <point x="205" y="405"/>
      <point x="205" y="405"/>
      <point x="205" y="407" type="curve" smooth="yes"/>
      <point x="205" y="493" type="line" smooth="yes"/>
      <point x="205" y="495"/>
      <point x="205" y="495"/>
      <point x="207" y="495" type="curve"/>
    </contour>
    <contour>
      <point x="207" y="595" type="line"/>
      <point x="293" y="595" type="line" smooth="yes"/>
      <point x="295" y="595"/>
      <point x="295" y="595"/>
      <point x="295" y="593" type="curve" smooth="yes"/>
      <point x="295" y="507" type="line" smooth="yes"/>
      <point x="295" y="505"/>
      <point x="295" y="505"/>
      <point x="293" y="505" type="curve" smooth="yes"/>
      <point x="207" y="505" type="line" smooth="yes"/>
      <point x="205" y="505"/>
      <point x="205" y="505"/>
      <point x="205" y="507" type="curve" smooth="yes"/>
      <point x="205" y="593" type="line" smooth="yes"/>
      <point x="205" y="595"/>
      <point x="205" y="595"/>
      <point x="207" y="595" type="curve"/>
    </contour>
    <contour>
      <point x="207" y="695" type="line"/>
      <point x="293" y="695" type="line" smooth="yes"/>
      <point x="295" y="695"/>
      <point x="295" y="695"/>
      <point x="295" y="693" type="curve" smooth="yes"/>
      <point x="295" y="607" type="line" smooth="yes"/>
      <point x="295" y="605"/>
      <point x="295" y="605"/>
      <point x="293" y="605" type="curve" smooth="yes"/>
      <point x="207" y="605" type="line" smooth="yes"/>
      <point x="205" y="605"/>
      <point x="205" y="605"/>
      <point x="205" y="607" type="curve" smooth="yes"/>
      <point x="205" y="693" type="line" smooth="yes"/>
      <point x="205" y="695"/>
      <point x="205" y="695"/>
      <point x="207" y="695" type="curve"/>
    </contour>
  </outline>
</glyph>
<glyph name="braceright" format="2">
  <advance width="600"/>
  <unicode hex="007D"/>
  <outline>
    <contour>
      <point x="207" y="95" type="line"/>
      <point x="293" y="95" type="line" smooth="yes"/>
      <point x="295" y="95"/>
      <point x="295" y="95"/>
      <point x="295" y="93" type="curve" smooth="yes"/>
      <point x="295" y="7" type="line" smooth="yes"/>
      <point x="295" y="5"/>
      <point x="295" y="5"/>
      <point x="293" y="5" type="curve" smooth="yes"/>
      <point x="207" y="5" type="line" smooth="yes"/>
      <point x="205" y="5"/>
      <point x="205" y="5"/>
      <point x="205" y="7" type="curve" smooth="yes"/>
      <point x="205" y="93" type="line" smooth="yes"/>
      <point x="205" y="95"/>
      <point x="205" y="95"/>
      <point x="207" y="95" type="curve"/>
    </contour>
    <contour>
      <point x="107" y="95" type="line"/>
      <point x="193" y="95" type="line" smooth="yes"/>
      <point x="195" y="95"/>
      <point x="195" y="95"/>
      <point x="195" y="93" type="curve" smooth="yes"/>
      <point x="195" y="7" type="line" smooth="yes"/>
      <point x="195" y="5"/>
      <point x="195" y="5"/>
      <point x="193" y="5" type="curve" smooth="yes"/>
      <point x="107" y="5" type="line" smooth="yes"/>
      <point x="105" y="5"/>
      <point x="105" y="5"/>
      <point x="105" y="7" type="curve" smooth="yes"/>
      <point x="105" y="93" type="line" smooth="yes"/>
      <point x="105" y="95"/>
      <point x="105" y="95"/>
      <point x="107" y="95" type="curve"/>
    </contour>
    <contour>
      <point x="307" y="195" type="line"/>
      <point x="393" y="195" type="line" smooth="yes"/>
      <point x="395" y="195"/>
      <point x="395" y="195"/>
      <point x="395" y="193" type="curve" smooth="yes"/>
      <point x="395" y="107" type="line" smooth="yes"/>
      <point x="395" y="105"/>
      <point x="395" y="105"/>
      <point x="393" y="105" type="curve" smooth="yes"/>
      <point x="307" y="105" type="line" smooth="yes"/>
      <point x="305" y="105"/>
      <point x="305" y="105"/>
      <point x="305" y="107" type="curve" smooth="yes"/>
      <point x="305" y="193" type="line" smooth="yes"/>
      <point x="305" y="195"/>
      <point x="305" y="195"/>
      <point x="307" y="195" type="curve"/>
    </contour>
    <contour>
      <point x="207" y="295" type="line"/>
      <point x="293" y="295" type="line" smooth="yes"/>
      <point x="295" y="295"/>
      <point x="295" y="295"/>
      <point x="295" y="293" type="curve" smooth="yes"/>
      <point x="295" y="207" type="line" smooth="yes"/>
      <point x="295" y="205"/>
      <point x="295" y="205"/>
      <point x="293" y="205" type="curve" smooth="yes"/>
      <point x="207" y="205" type="line" smooth="yes"/>
      <point x="205" y="205"/>
      <point x="205" y="205"/>
      <point x="205" y="207" type="curve" smooth="yes"/>
      <point x="205" y="293" type="line" smooth="yes"/>
      <point x="205" y="295"/>
      <point x="205" y="295"/>
      <point x="207" y="295" type="curve"/>
    </contour>
    <contour>
      <point x="407" y="395" type="line"/>
      <point x="493" y="395" type="line" smooth="yes"/>
      <point x="495" y="395"/>
      <point x="495" y="395"/>
      <point x="495" y="393" type="curve" smooth="yes"/>
      <point x="495" y="307" type="line" smooth="yes"/>
      <point x="495" y="305"/>
      <point x="495" y="305"/>
      <point x="493" y="305" type="curve" smooth="yes"/>
      <point x="407" y="305" type="line" smooth="yes"/>
      <point x="405" y="305"/>
      <point x="405" y="305"/>
      <point x="405" y="307" type="curve" smooth="yes"/>
      <point x="405" y="393" type="line" smooth="yes"/>
      <point x="405" y="395"/>
      <point x="405" y="395"/>
      <point x="407" y="395" type="curve"/>
    </contour>
    <contour>
      <point x="307" y="395" type="line"/>
      <point x="393" y="395" type="line" smooth="yes"/>
      <point x="395" y="395"/>
      <point x="395" y="395"/>
      <point x="395" y="393" type="curve" smooth="yes"/>
      <point x="395" y="307" type="line" smooth="yes"/>
      <point x="395" y="305"/>
      <point x="395" y="305"/>
      <point x="393" y="305" type="curve" smooth="yes"/>
      <point x="307" y="305" type="line" smooth="yes"/>
      <point x="305" y="305"/>
      <point x="305" y="305"/>
      <point x="305" y="307" type="curve" smooth="yes"/>
      <point x="305" y="393" type="line" smooth="yes"/>
      <point x="305" y="395"/>
      <point x="305" y="395"/>
      <point x="307" y="395" type="curve"/>
    </contour>
    <contour>
      <point x="207" y="495" type="line"/>
      <point x="293" y="495" type="line" smooth="yes"/>
      <point x="295" y="495"/>
      <point x="295" y="495"/>
      <point x="295" y="493" type="curve" smooth="yes"/>
      <point x="295" y="407" type="line" smooth="yes"/>
      <point x="295" y="405"/>
      <point x="295" y="405"/>
      <point x="293" y="405" type="curve" smooth="yes"/>
      <point x="207" y="405" type="line" smooth="yes"/>
      <point x="205" y="405"/>
      <point x="205" y="405"/>
      <point x="205" y="407" type="curve" smooth="yes"/>
      <point x="205" y="493" type="line" smooth="yes"/>
      <point x="205" y="495"/>
      <point x="205" y="495"/>
      <point x="207" y="495" type="curve"/>
    </contour>
    <contour>
      <point x="307" y="595" type="line"/>
      <point x="393" y="595" type="line" smooth="yes"/>
      <point x="395" y="595"/>
      <point x="395" y="595"/>
      <point x="395" y="593" type="curve" smooth="yes"/>
      <point x="395" y="507" type="line" smooth="yes"/>
      <point x="395" y="505"/>
      <point x="395" y="505"/>
      <point x="393" y="505" type="curve" smooth="yes"/>
      <point x="307" y="505" type="line" smooth="yes"/>
      <point x="305" y="505"/>
      <point x="305" y="505"/>
      <point x="305" y="507" type="curve" smooth="yes"/>
      <point x="305" y="593" type="line" smooth="yes"/>
      <point x="305" y="595"/>
      <point x="305" y="595"/>
      <point x="307" y="595" type="curve"/>
    </contour>
    <contour>
      <point x="207" y="695" type="line"/>
      <point x="293" y="695" type="line" smooth="yes"/>
      <point x="295" y="695"/>
      <point x="295" y="695"/>
      <point x="295" y="693" type="curve" smooth="yes"/>
      <point x="295" y="607" type="line" smooth="yes"/>
      <point x="295" y="605"/>
      <point x="295" y="605"/>
      <point x="293" y="605" type="curve" smooth="yes"/>
      <point x="207" y="605" type="line" smooth="yes"/>
      <point x="205" y="605"/>
      <point x="205" y="605"/>
      <point x="205" y="607" type="curve" smooth="yes"/>
      <point x="205" y="693" type="line" smooth="yes"/>
      <point x="205" y="695"/>
      <point x="205" y="695"/>
      <point x="207" y="695" type="curve"/>
    </contour>
    <contour>
      <point x="107" y="695" type="line"/>
      <point x="193" y="695" type="line" smooth="yes"/>
      <point x="195" y="695"/>
      <point x="195" y="695"/>
      <point x="195" y="693" type="curve" smooth="yes"/>
      <point x="195" y="607" type="line" smooth="yes"/>
      <point x="195" y="605"/>
      <point x="195" y="605"/>
      <point x="193" y="605" type="curve" smooth="yes"/>
      <point x="107" y="605" type="line" smooth="yes"/>
      <point x="105" y="605"/>
      <point x="105" y="605"/>
      <point x="105" y="607" type="curve" smooth="yes"/>
      <point x="105" y="693" type="line" smooth="yes"/>
      <point x="105" y="695"/>
      <point x="105" y="695"/>
      <point x="107" y="695" type="curve"/>
    </contour>
  </outline>
</glyph>
<glyph name="guillemotleft" format="2">
  <advance width="600"/>
  <unicode hex="00AB"/>
  <outline>
    <contour>
      <point x="507.25" y="95" type="line"/>
      <point x="592.75" y="95" type="line" smooth="yes"/>
      <point x="595" y="95"/>
      <point x="595" y="95"/>
      <point x="595" y="92.75" type="curve" smooth="yes"/>
      <point x="595" y="7.25" type="line" smooth="yes"/>
      <point x="595" y="5"/>
      <point x="595" y="5"/>
      <point x="592.75" y="5" type="curve" smooth="yes"/>
      <point x="507.25" y="5" type="line" smooth="yes"/>
      <point x="505" y="5"/>
      <point x="505" y="5"/>
      <point x="505" y="7.25" type="curve" smooth="yes"/>
      <point x="505" y="92.75" type="line" smooth="yes"/>
      <point x="505" y="95"/>
      <point x="505" y="95"/>
      <point x="507.25" y="95" type="curve"/>
    </contour>
    <contour>
      <point x="207.25" y="95" type="line"/>
      <point x="292.75" y="95" type="line" smooth="yes"/>
      <point x="295" y="95"/>
      <point x="295" y="95"/>
      <point x="295" y="92.75" type="curve" smooth="yes"/>
      <point x="295" y="7.25" type="line" smooth="yes"/>
      <point x="295" y="5"/>
      <point x="295" y="5"/>
      <point x="292.75" y="5" type="curve" smooth="yes"/>
      <point x="207.25" y="5" type="line" smooth="yes"/>
      <point x="205" y="5"/>
      <point x="205" y="5"/>
      <point x="205" y="7.25" type="curve" smooth="yes"/>
      <point x="205" y="92.75" type="line" smooth="yes"/>
      <point x="205" y="95"/>
      <point x="205" y="95"/>
      <point x="207.25" y="95" type="curve"/>
    </contour>
    <contour>
      <point x="407.25" y="195" type="line"/>
      <point x="492.75" y="195" type="line" smooth="yes"/>
      <point x="495" y="195"/>
      <point x="495" y="195"/>
      <point x="495" y="192.75" type="curve" smooth="yes"/>
      <point x="495" y="107.25" type="line" smooth="yes"/>
      <point x="495" y="105"/>
      <point x="495" y="105"/>
      <point x="492.75" y="105" type="curve" smooth="yes"/>
      <point x="407.25" y="105" type="line" smooth="yes"/>
      <point x="405" y="105"/>
      <point x="405" y="105"/>
      <point x="405" y="107.25" type="curve" smooth="yes"/>
      <point x="405" y="192.75" type="line" smooth="yes"/>
      <point x="405" y="195"/>
      <point x="405" y="195"/>
      <point x="407.25" y="195" type="curve"/>
    </contour>
    <contour>
      <point x="107.25" y="195" type="line"/>
      <point x="192.75" y="195" type="line" smooth="yes"/>
      <point x="195" y="195"/>
      <point x="195" y="195"/>
      <point x="195" y="192.75" type="curve" smooth="yes"/>
      <point x="195" y="107.25" type="line" smooth="yes"/>
      <point x="195" y="105"/>
      <point x="195" y="105"/>
      <point x="192.75" y="105" type="curve" smooth="yes"/>
      <point x="107.25" y="105" type="line" smooth="yes"/>
      <point x="105" y="105"/>
      <point x="105" y="105"/>
      <point x="105" y="107.25" type="curve" smooth="yes"/>
      <point x="105" y="192.75" type="line" smooth="yes"/>
      <point x="105" y="195"/>
      <point x="105" y="195"/>
      <point x="107.25" y="195" type="curve"/>
    </contour>
    <contour>
      <point x="307.25" y="295" type="line"/>
      <point x="392.75" y="295" type="line" smooth="yes"/>
      <point x="395" y="295"/>
      <point x="395" y="295"/>
      <point x="395" y="292.75" type="curve" smooth="yes"/>
      <point x="395" y="207.25" type="line" smooth="yes"/>
      <point x="395" y="205"/>
      <point x="395" y="205"/>
      <point x="392.75" y="205" type="curve" smooth="yes"/>
      <point x="307.25" y="205" type="line" smooth="yes"/>
      <point x="305" y="205"/>
      <point x="305" y="205"/>
      <point x="305" y="207.25" type="curve" smooth="yes"/>
      <point x="305" y="292.75" type="line" smooth="yes"/>
      <point x="305" y="295"/>
      <point x="305" y="295"/>
      <point x="307.25" y="295" type="curve"/>
    </contour>
    <contour>
      <point x="7.25" y="295" type="line"/>
      <point x="92.75" y="295" type="line" smooth="yes"/>
      <point x="95" y="295"/>
      <point x="95" y="295"/>
      <point x="95" y="292.75" type="curve" smooth="yes"/>
      <point x="95" y="207.25" type="line" smooth="yes"/>
      <point x="95" y="205"/>
      <point x="95" y="205"/>
      <point x="92.75" y="205" type="curve" smooth="yes"/>
      <point x="7.25" y="205" type="line" smooth="yes"/>
      <point x="5" y="205"/>
      <point x="5" y="205"/>
      <point x="5" y="207.25" type="curve" smooth="yes"/>
      <point x="5" y="292.75" type="line" smooth="yes"/>
      <point x="5" y="295"/>
      <point x="5" y="295"/>
      <point x="7.25" y="295" type="curve"/>
    </contour>
    <contour>
      <point x="407.25" y="395" type="line"/>
      <point x="492.75" y="395" type="line" smooth="yes"/>
      <point x="495" y="395"/>
      <point x="495" y="395"/>
      <point x="495" y="392.75" type="curve" smooth="yes"/>
      <point x="495" y="307.25" type="line" smooth="yes"/>
      <point x="495" y="305"/>
      <point x="495" y="305"/>
      <point x="492.75" y="305" type="curve" smooth="yes"/>
      <point x="407.25" y="305" type="line" smooth="yes"/>
      <point x="405" y="305"/>
      <point x="405" y="305"/>
      <point x="405" y="307.25" type="curve" smooth="yes"/>
      <point x="405" y="392.75" type="line" smooth="yes"/>
      <point x="405" y="395"/>
      <point x="405" y="395"/>
      <point x="407.25" y="395" type="curve"/>
    </contour>
    <contour>
      <point x="107.25" y="395" type="line"/>
      <point x="192.75" y="395" type="line" smooth="yes"/>
      <point x="195" y="395"/>
      <point x="195" y="395"/>
      <point x="195" y="392.75" type="curve" smooth="yes"/>
      <point x="195" y="307.25" type="line" smooth="yes"/>
      <point x="195" y="305"/>
      <point x="195" y="305"/>
      <point x="192.75" y="305" type="curve" smooth="yes"/>
      <point x="107.25" y="305" type="line" smooth="yes"/>
      <point x="105" y="305"/>
      <point x="105" y="305"/>
      <point x="105" y="307.25" type="curve" smooth="yes"/>
      <point x="105" y="392.75" type="line" smooth="yes"/>
      <point x="105" y="395"/>
      <point x="105" y="395"/>
      <point x="107.25" y="395" type="curve"/>
    </contour>
    <contour>
      <point x="507.25" y="495" type="line"/>
      <point x="592.75" y="495" type="line" smooth="yes"/>
      <point x="595" y="495"/>
      <point x="595" y="495"/>
      <point x="595" y="492.75" type="curve" smooth="yes"/>
      <point x="595" y="407.25" type="line" smooth="yes"/>
      <point x="595" y="405"/>
      <point x="595" y="405"/>
      <point x="592.75" y="405" type="curve" smooth="yes"/>
      <point x="507.25" y="405" type="line" smooth="yes"/>
      <point x="505" y="405"/>
      <point x="505" y="405"/>
      <point x="505" y="407.25" type="curve" smooth="yes"/>
      <point x="505" y="492.75" type="line" smooth="yes"/>
      <point x="505" y="495"/>
      <point x="505" y="495"/>
      <point x="507.25" y="495" type="curve"/>
    </contour>
    <contour>
      <point x="207.25" y="495" type="line"/>
      <point x="292.75" y="495" type="line" smooth="yes"/>
      <point x="295" y="495"/>
      <point x="295" y="495"/>
      <point x="295" y="492.75" type="curve" smooth="yes"/>
      <point x="295" y="407.25" type="line" smooth="yes"/>
      <point x="295" y="405"/>
      <point x="295" y="405"/>
      <point x="292.75" y="405" type="curve" smooth="yes"/>
      <point x="207.25" y="405" type="line" smooth="yes"/>
      <point x="205" y="405"/>
      <point x="205" y="405"/>
      <point x="205" y="407.25" type="curve" smooth="yes"/>
      <point x="205" y="492.75" type="line" smooth="yes"/>
      <point x="205" y="495"/>
      <point x="205" y="495"/>
      <point x="207.25" y="495" type="curve"/>
    </contour>
  </outline>
</glyph>
<glyph name="periodcentered" format="2">
  <advance width="600"/>
  <unicode hex="00B7"/>
  <outline>
    <contour>
      <point x="207.25" y="395" type="line"/>
      <point x="292.75" y="395" type="line" smooth="yes"/>
      <point x="295" y="395"/>
      <point x="295" y="395"/>
      <point x="295" y="392.75" type="curve" smooth="yes"/>
      <point x="295" y="307.25" type="line" smooth="yes"/>
      <point x="295" y="305"/>
      <point x="295" y="305"/>
      <point x="292.75" y="305" type="curve" smooth="yes"/>
      <point x="207.25" y="305" type="line" smooth="yes"/>
      <point x="205" y="305"/>
      <point x="205" y="305"/>
      <point x="205" y="307.25" type="curve" smooth="yes"/>
      <point x="205" y="392.75" type="line" smooth="yes"/>
      <point x="205" y="395"/>
      <point x="205" y="395"/>
      <point x="207.25" y="395" type="curve"/>
    </contour>
  </outline>
</glyph>
<glyph name="AE" format="2">
  <advance width="600"/>
  <unicode hex="00C6"/>
  <outline>
    <contour>
      <point x="507" y="95" type="curve" smooth="yes"/>
      <point x="593" y="95" type="line" smooth="yes"/>
      <point x="595" y="95"/>
      <point x="595" y="95"/>
      <point x="595" y="93" type="curve" smooth="yes"/>
      <point x="595" y="7" type="line" smooth="yes"/>
      <point x="595" y="5"/>
      <point x="595" y="5"/>
      <point x="593" y="5" type="curve" smooth="yes"/>
      <point x="507" y="5" type="line" smooth="yes"/>
      <point x="505" y="5"/>
      <point x="505" y="5"/>
      <point x="505" y="7" type="curve" smooth="yes"/>
      <point x="505" y="93" type="line" smooth="yes"/>
      <point x="505" y="95"/>
      <point x="505" y="95"/>
    </contour>
    <contour>
      <point x="407" y="95" type="curve" smooth="yes"/>
      <point x="493" y="95" type="line" smooth="yes"/>
      <point x="495" y="95"/>
      <point x="495" y="95"/>
      <point x="495" y="93" type="curve" smooth="yes"/>
      <point x="495" y="7" type="line" smooth="yes"/>
      <point x="495" y="5"/>
      <point x="495" y="5"/>
      <point x="493" y="5" type="curve" smooth="yes"/>
      <point x="407" y="5" type="line" smooth="yes"/>
      <point x="405" y="5"/>
      <point x="405" y="5"/>
      <point x="405" y="7" type="curve" smooth="yes"/>
      <point x="405" y="93" type="line" smooth="yes"/>
      <point x="405" y="95"/>
      <point x="405" y="95"/>
    </contour>
    <contour>
      <point x="307" y="95" type="curve" smooth="yes"/>
      <point x="393" y="95" type="line" smooth="yes"/>
      <point x="395" y="95"/>
      <point x="395" y="95"/>
      <point x="395" y="93" type="curve" smooth="yes"/>
      <point x="395" y="7" type="line" smooth="yes"/>
      <point x="395" y="5"/>
      <point x="395" y="5"/>
      <point x="393" y="5" type="curve" smooth="yes"/>
      <point x="307" y="5" type="line" smooth="yes"/>
      <point x="305" y="5"/>
      <point x="305" y="5"/>
      <point x="305" y="7" type="curve" smooth="yes"/>
      <point x="305" y="93" type="line" smooth="yes"/>
      <point x="305" y="95"/>
      <point x="305" y="95"/>
    </contour>
    <contour>
      <point x="7" y="95" type="curve" smooth="yes"/>
      <point x="93" y="95" type="line" smooth="yes"/>
      <point x="95" y="95"/>
      <point x="95" y="95"/>
      <point x="95" y="93" type="curve" smooth="yes"/>
      <point x="95" y="7" type="line" smooth="yes"/>
      <point x="95" y="5"/>
      <point x="95" y="5"/>
      <point x="93" y="5" type="curve" smooth="yes"/>
      <point x="7" y="5" type="line" smooth="yes"/>
      <point x="5" y="5"/>
      <point x="5" y="5"/>
      <point x="5" y="7" type="curve" smooth="yes"/>
      <point x="5" y="93" type="line" smooth="yes"/>
      <point x="5" y="95"/>
      <point x="5" y="95"/>
    </contour>
    <contour>
      <point x="307" y="195" type="curve" smooth="yes"/>
      <point x="393" y="195" type="line" smooth="yes"/>
      <point x="395" y="195"/>
      <point x="395" y="195"/>
      <point x="395" y="193" type="curve" smooth="yes"/>
      <point x="395" y="107" type="line" smooth="yes"/>
      <point x="395" y="105"/>
      <point x="395" y="105"/>
      <point x="393" y="105" type="curve" smooth="yes"/>
      <point x="307" y="105" type="line" smooth="yes"/>
      <point x="305" y="105"/>
      <point x="305" y="105"/>
      <point x="305" y="107" type="curve" smooth="yes"/>
      <point x="305" y="193" type="line" smooth="yes"/>
      <point x="305" y="195"/>
      <point x="305" y="195"/>
    </contour>
    <contour>
      <point x="7" y="195" type="curve" smooth="yes"/>
      <point x="93" y="195" type="line" smooth="yes"/>
      <point x="95" y="195"/>
      <point x="95" y="195"/>
      <point x="95" y="193" type="curve" smooth="yes"/>
      <point x="95" y="107" type="line" smooth="yes"/>
      <point x="95" y="105"/>
      <point x="95" y="105"/>
      <point x="93" y="105" type="curve" smooth="yes"/>
      <point x="7" y="105" type="line" smooth="yes"/>
      <point x="5" y="105"/>
      <point x="5" y="105"/>
      <point x="5" y="107" type="curve" smooth="yes"/>
      <point x="5" y="193" type="line" smooth="yes"/>
      <point x="5" y="195"/>
      <point x="5" y="195"/>
    </contour>
    <contour>
      <point x="307" y="295" type="curve" smooth="yes"/>
      <point x="393" y="295" type="line" smooth="yes"/>
      <point x="395" y="295"/>
      <point x="395" y="295"/>
      <point x="395" y="293" type="curve" smooth="yes"/>
      <point x="395" y="207" type="line" smooth="yes"/>
      <point x="395" y="205"/>
      <point x="395" y="205"/>
      <point x="393" y="205" type="curve" smooth="yes"/>
      <point x="307" y="205" type="line" smooth="yes"/>
      <point x="305" y="205"/>
      <point x="305" y="205"/>
      <point x="305" y="207" type="curve" smooth="yes"/>
      <point x="305" y="293" type="line" smooth="yes"/>
      <point x="305" y="295"/>
      <point x="305" y="295"/>
    </contour>
    <contour>
      <point x="207" y="295" type="curve" smooth="yes"/>
      <point x="293" y="295" type="line" smooth="yes"/>
      <point x="295" y="295"/>
      <point x="295" y="295"/>
      <point x="295" y="293" type="curve" smooth="yes"/>
      <point x="295" y="207" type="line" smooth="yes"/>
      <point x="295" y="205"/>
      <point x="295" y="205"/>
      <point x="293" y="205" type="curve" smooth="yes"/>
      <point x="207" y="205" type="line" smooth="yes"/>
      <point x="205" y="205"/>
      <point x="205" y="205"/>
      <point x="205" y="207" type="curve" smooth="yes"/>
      <point x="205" y="293" type="line" smooth="yes"/>
      <point x="205" y="295"/>
      <point x="205" y="295"/>
    </contour>
    <contour>
      <point x="107" y="295" type="curve" smooth="yes"/>
      <point x="193" y="295" type="line" smooth="yes"/>
      <point x="195" y="295"/>
      <point x="195" y="295"/>
      <point x="195" y="293" type="curve" smooth="yes"/>
      <point x="195" y="207" type="line" smooth="yes"/>
      <point x="195" y="205"/>
      <point x="195" y="205"/>
      <point x="193" y="205" type="curve" smooth="yes"/>
      <point x="107" y="205" type="line" smooth="yes"/>
      <point x="105" y="205"/>
      <point x="105" y="205"/>
      <point x="105" y="207" type="curve" smooth="yes"/>
      <point x="105" y="293" type="line" smooth="yes"/>
      <point x="105" y="295"/>
      <point x="105" y="295"/>
    </contour>
    <contour>
      <point x="7" y="295" type="curve" smooth="yes"/>
      <point x="93" y="295" type="line" smooth="yes"/>
      <point x="95" y="295"/>
      <point x="95" y="295"/>
      <point x="95" y="293" type="curve" smooth="yes"/>
      <point x="95" y="207" type="line" smooth="yes"/>
      <point x="95" y="205"/>
      <point x="95" y="205"/>
      <point x="93" y="205" type="curve" smooth="yes"/>
      <point x="7" y="205" type="line" smooth="yes"/>
      <point x="5" y="205"/>
      <point x="5" y="205"/>
      <point x="5" y="207" type="curve" smooth="yes"/>
      <point x="5" y="293" type="line" smooth="yes"/>
      <point x="5" y="295"/>
      <point x="5" y="295"/>
    </contour>
    <contour>
      <point x="507" y="395" type="curve" smooth="yes"/>
      <point x="593" y="395" type="line" smooth="yes"/>
      <point x="595" y="395"/>
      <point x="595" y="395"/>
      <point x="595" y="393" type="curve" smooth="yes"/>
      <point x="595" y="307" type="line" smooth="yes"/>
      <point x="595" y="305"/>
      <point x="595" y="305"/>
      <point x="593" y="305" type="curve" smooth="yes"/>
      <point x="507" y="305" type="line" smooth="yes"/>
      <point x="505" y="305"/>
      <point x="505" y="305"/>
      <point x="505" y="307" type="curve" smooth="yes"/>
      <point x="505" y="393" type="line" smooth="yes"/>
      <point x="505" y="395"/>
      <point x="505" y="395"/>
    </contour>
    <contour>
      <point x="407" y="395" type="curve" smooth="yes"/>
      <point x="493" y="395" type="line" smooth="yes"/>
      <point x="495" y="395"/>
      <point x="495" y="395"/>
      <point x="495" y="393" type="curve" smooth="yes"/>
      <point x="495" y="307" type="line" smooth="yes"/>
      <point x="495" y="305"/>
      <point x="495" y="305"/>
      <point x="493" y="305" type="curve" smooth="yes"/>
      <point x="407" y="305" type="line" smooth="yes"/>
      <point x="405" y="305"/>
      <point x="405" y="305"/>
      <point x="405" y="307" type="curve" smooth="yes"/>
      <point x="405" y="393" type="line" smooth="yes"/>
      <point x="405" y="395"/>
      <point x="405" y="395"/>
    </contour>
    <contour>
      <point x="307" y="395" type="curve" smooth="yes"/>
      <point x="393" y="395" type="line" smooth="yes"/>
      <point x="395" y="395"/>
      <point x="395" y="395"/>
      <point x="395" y="393" type="curve" smooth="yes"/>
      <point x="395" y="307" type="line" smooth="yes"/>
      <point x="395" y="305"/>
      <point x="395" y="305"/>
      <point x="393" y="305" type="curve" smooth="yes"/>
      <point x="307" y="305" type="line" smooth="yes"/>
      <point x="305" y="305"/>
      <point x="305" y="305"/>
      <point x="305" y="307" type="curve" smooth="yes"/>
      <point x="305" y="393" type="line" smooth="yes"/>
      <point x="305" y="395"/>
      <point x="305" y="395"/>
    </contour>
    <contour>
      <point x="7" y="395" type="curve" smooth="yes"/>
      <point x="93" y="395" type="line" smooth="yes"/>
      <point x="95" y="395"/>
      <point x="95" y="395"/>
      <point x="95" y="393" type="curve" smooth="yes"/>
      <point x="95" y="307" type="line" smooth="yes"/>
      <point x="95" y="305"/>
      <point x="95" y="305"/>
      <point x="93" y="305" type="curve" smooth="yes"/>
      <point x="7" y="305" type="line" smooth="yes"/>
      <point x="5" y="305"/>
      <point x="5" y="305"/>
      <point x="5" y="307" type="curve" smooth="yes"/>
      <point x="5" y="393" type="line" smooth="yes"/>
      <point x="5" y="395"/>
      <point x="5" y="395"/>
    </contour>
    <contour>
      <point x="307" y="495" type="curve" smooth="yes"/>
      <point x="393" y="495" type="line" smooth="yes"/>
      <point x="395" y="495"/>
      <point x="395" y="495"/>
      <point x="395" y="493" type="curve" smooth="yes"/>
      <point x="395" y="407" type="line" smooth="yes"/>
      <point x="395" y="405"/>
      <point x="395" y="405"/>
      <point x="393" y="405" type="curve" smooth="yes"/>
      <point x="307" y="405" type="line" smooth="yes"/>
      <point x="305" y="405"/>
      <point x="305" y="405"/>
      <point x="305" y="407" type="curve" smooth="yes"/>
      <point x="305" y="493" type="line" smooth="yes"/>
      <point x="305" y="495"/>
      <point x="305" y="495"/>
    </contour>
    <contour>
      <point x="7" y="495" type="curve" smooth="yes"/>
      <point x="93" y="495" type="line" smooth="yes"/>
      <point x="95" y="495"/>
      <point x="95" y="495"/>
      <point x="95" y="493" type="curve" smooth="yes"/>
      <point x="95" y="407" type="line" smooth="yes"/>
      <point x="95" y="405"/>
      <point x="95" y="405"/>
      <point x="93" y="405" type="curve" smooth="yes"/>
      <point x="7" y="405" type="line" smooth="yes"/>
      <point x="5" y="405"/>
      <point x="5" y="405"/>
      <point x="5" y="407" type="curve" smooth="yes"/>
      <point x="5" y="493" type="line" smooth="yes"/>
      <point x="5" y="495"/>
      <point x="5" y="495"/>
    </contour>
    <contour>
      <point x="307" y="595" type="curve" smooth="yes"/>
      <point x="393" y="595" type="line" smooth="yes"/>
      <point x="395" y="595"/>
      <point x="395" y="595"/>
      <point x="395" y="593" type="curve" smooth="yes"/>
      <point x="395" y="507" type="line" smooth="yes"/>
      <point x="395" y="505"/>
      <point x="395" y="505"/>
      <point x="393" y="505" type="curve" smooth="yes"/>
      <point x="307" y="505" type="line" smooth="yes"/>
      <point x="305" y="505"/>
      <point x="305" y="505"/>
      <point x="305" y="507" type="curve" smooth="yes"/>
      <point x="305" y="593" type="line" smooth="yes"/>
      <point x="305" y="595"/>
      <point x="305" y="595"/>
    </contour>
    <contour>
      <point x="107" y="595" type="curve" smooth="yes"/>
      <point x="193" y="595" type="line" smooth="yes"/>
      <point x="195" y="595"/>
      <point x="195" y="595"/>
      <point x="195" y="593" type="curve" smooth="yes"/>
      <point x="195" y="507" type="line" smooth="yes"/>
      <point x="195" y="505"/>
      <point x="195" y="505"/>
      <point x="193" y="505" type="curve" smooth="yes"/>
      <point x="107" y="505" type="line" smooth="yes"/>
      <point x="105" y="505"/>
      <point x="105" y="505"/>
      <point x="105" y="507" type="curve" smooth="yes"/>
      <point x="105" y="593" type="line" smooth="yes"/>
      <point x="105" y="595"/>
      <point x="105" y="595"/>
    </contour>
    <contour>
      <point x="507" y="695" type="curve" smooth="yes"/>
      <point x="593" y="695" type="line" smooth="yes"/>
      <point x="595" y="695"/>
      <point x="595" y="695"/>
      <point x="595" y="693" type="curve" smooth="yes"/>
      <point x="595" y="607" type="line" smooth="yes"/>
      <point x="595" y="605"/>
      <point x="595" y="605"/>
      <point x="593" y="605" type="curve" smooth="yes"/>
      <point x="507" y="605" type="line" smooth="yes"/>
      <point x="505" y="605"/>
      <point x="505" y="605"/>
      <point x="505" y="607" type="curve" smooth="yes"/>
      <point x="505" y="693" type="line" smooth="yes"/>
      <point x="505" y="695"/>
      <point x="505" y="695"/>
    </contour>
    <contour>
      <point x="407" y="695" type="curve" smooth="yes"/>
      <point x="493" y="695" type="line" smooth="yes"/>
      <point x="495" y="695"/>
      <point x="495" y="695"/>
      <point x="495" y="693" type="curve" smooth="yes"/>
      <point x="495" y="607" type="line" smooth="yes"/>
      <point x="495" y="605"/>
      <point x="495" y="605"/>
      <point x="493" y="605" type="curve" smooth="yes"/>
      <point x="407" y="605" type="line" smooth="yes"/>
      <point x="405" y="605"/>
      <point x="405" y="605"/>
      <point x="405" y="607" type="curve" smooth="yes"/>
      <point x="405" y="693" type="line" smooth="yes"/>
      <point x="405" y="695"/>
      <point x="405" y="695"/>
    </contour>
    <contour>
      <point x="307" y="695" type="curve" smooth="yes"/>
      <point x="393" y="695" type="line" smooth="yes"/>
      <point x="395" y="695"/>
      <point x="395" y="695"/>
      <point x="395" y="693" type="curve" smooth="yes"/>
      <point x="395" y="607" type="line" smooth="yes"/>
      <point x="395" y="605"/>
      <point x="395" y="605"/>
      <point x="393" y="605" type="curve" smooth="yes"/>
      <point x="307" y="605" type="line" smooth="yes"/>
      <point x="305" y="605"/>
      <point x="305" y="605"/>
      <point x="305" y="607" type="curve" smooth="yes"/>
      <point x="305" y="693" type="line" smooth="yes"/>
      <point x="305" y="695"/>
      <point x="305" y="695"/>
    </contour>
    <contour>
      <point x="207" y="695" type="curve" smooth="yes"/>
      <point x="293" y="695" type="line" smooth="yes"/>
      <point x="295" y="695"/>
      <point x="295" y="695"/>
      <point x="295" y="693" type="curve" smooth="yes"/>
      <point x="295" y="607" type="line" smooth="yes"/>
      <point x="295" y="605"/>
      <point x="295" y="605"/>
      <point x="293" y="605" type="curve" smooth="yes"/>
      <point x="207" y="605" type="line" smooth="yes"/>
      <point x="205" y="605"/>
      <point x="205" y="605"/>
      <point x="205" y="607" type="curve" smooth="yes"/>
      <point x="205" y="693" type="line" smooth="yes"/>
      <point x="205" y="695"/>
      <point x="205" y="695"/>
    </contour>
  </outline>
</glyph>
<glyph name="yacute" format="2">
  <advance width="600"/>
  <unicode hex="00FD"/>
  <outline>
    <contour>
      <point x="307.25" y="-105" type="line"/>
      <point x="392.75" y="-105" type="line" smooth="yes"/>
      <point x="395" y="-105"/>
      <point x="395" y="-105"/>
      <point x="395" y="-107.25" type="curve" smooth="yes"/>
      <point x="395" y="-192.75" type="line" smooth="yes"/>
      <point x="395" y="-195"/>
      <point x="395" y="-195"/>
      <point x="392.75" y="-195" type="curve" smooth="yes"/>
      <point x="307.25" y="-195" type="line" smooth="yes"/>
      <point x="305" y="-195"/>
      <point x="305" y="-195"/>
      <point x="305" y="-192.75" type="curve" smooth="yes"/>
      <point x="305" y="-107.25" type="line" smooth="yes"/>
      <point x="305" y="-105"/>
      <point x="305" y="-105"/>
      <point x="307.25" y="-105" type="curve"/>
    </contour>
    <contour>
      <point x="207.25" y="-105" type="line"/>
      <point x="292.75" y="-105" type="line" smooth="yes"/>
      <point x="295" y="-105"/>
      <point x="295" y="-105"/>
      <point x="295" y="-107.25" type="curve" smooth="yes"/>
      <point x="295" y="-192.75" type="line" smooth="yes"/>
      <point x="295" y="-195"/>
      <point x="295" y="-195"/>
      <point x="292.75" y="-195" type="curve" smooth="yes"/>
      <point x="207.25" y="-195" type="line" smooth="yes"/>
      <point x="205" y="-195"/>
      <point x="205" y="-195"/>
      <point x="205" y="-192.75" type="curve" smooth="yes"/>
      <point x="205" y="-107.25" type="line" smooth="yes"/>
      <point x="205" y="-105"/>
      <point x="205" y="-105"/>
      <point x="207.25" y="-105" type="curve"/>
    </contour>
    <contour>
      <point x="107.25" y="-105" type="line"/>
      <point x="192.75" y="-105" type="line" smooth="yes"/>
      <point x="195" y="-105"/>
      <point x="195" y="-105"/>
      <point x="195" y="-107.25" type="curve" smooth="yes"/>
      <point x="195" y="-192.75" type="line" smooth="yes"/>
      <point x="195" y="-195"/>
      <point x="195" y="-195"/>
      <point x="192.75" y="-195" type="curve" smooth="yes"/>
      <point x="107.25" y="-195" type="line" smooth="yes"/>
      <point x="105" y="-195"/>
      <point x="105" y="-195"/>
      <point x="105" y="-192.75" type="curve" smooth="yes"/>
      <point x="105" y="-107.25" type="line" smooth="yes"/>
      <point x="105" y="-105"/>
      <point x="105" y="-105"/>
      <point x="107.25" y="-105" type="curve"/>
    </contour>
    <contour>
      <point x="407.25" y="-5" type="line"/>
      <point x="492.75" y="-5" type="line" smooth="yes"/>
      <point x="495" y="-5"/>
      <point x="495" y="-5"/>
      <point x="495" y="-7.25" type="curve" smooth="yes"/>
      <point x="495" y="-92.75" type="line" smooth="yes"/>
      <point x="495" y="-95"/>
      <point x="495" y="-95"/>
      <point x="492.75" y="-95" type="curve" smooth="yes"/>
      <point x="407.25" y="-95" type="line" smooth="yes"/>
      <point x="405" y="-95"/>
      <point x="405" y="-95"/>
      <point x="405" y="-92.75" type="curve" smooth="yes"/>
      <point x="405" y="-7.25" type="line" smooth="yes"/>
      <point x="405" y="-5"/>
      <point x="405" y="-5"/>
      <point x="407.25" y="-5" type="curve"/>
    </contour>
    <contour>
      <point x="7.25" y="-5" type="line"/>
      <point x="92.75" y="-5" type="line" smooth="yes"/>
      <point x="95" y="-5"/>
      <point x="95" y="-5"/>
      <point x="95" y="-7.25" type="curve" smooth="yes"/>
      <point x="95" y="-92.75" type="line" smooth="yes"/>
      <point x="95" y="-95"/>
      <point x="95" y="-95"/>
      <point x="92.75" y="-95" type="curve" smooth="yes"/>
      <point x="7.25" y="-95" type="line" smooth="yes"/>
      <point x="5" y="-95"/>
      <point x="5" y="-95"/>
      <point x="5" y="-92.75" type="curve" smooth="yes"/>
      <point x="5" y="-7.25" type="line" smooth="yes"/>
      <point x="5" y="-5"/>
      <point x="5" y="-5"/>
      <point x="7.25" y="-5" type="curve"/>
    </contour>
    <contour>
      <point x="407.25" y="95" type="line"/>
      <point x="492.75" y="95" type="line" smooth="yes"/>
      <point x="495" y="95"/>
      <point x="495" y="95"/>
      <point x="495" y="92.75" type="curve" smooth="yes"/>
      <point x="495" y="7.25" type="line" smooth="yes"/>
      <point x="495" y="5"/>
      <point x="495" y="5"/>
      <point x="492.75" y="5" type="curve" smooth="yes"/>
      <point x="407.25" y="5" type="line" smooth="yes"/>
      <point x="405" y="5"/>
      <point x="405" y="5"/>
      <point x="405" y="7.25" type="curve" smooth="yes"/>
      <point x="405" y="92.75" type="line" smooth="yes"/>
      <point x="405" y="95"/>
      <point x="405" y="95"/>
      <point x="407.25" y="95" type="curve"/>
    </contour>
    <contour>
      <point x="407.25" y="195" type="line"/>
      <point x="492.75" y="195" type="line" smooth="yes"/>
      <point x="495" y="195"/>
      <point x="495" y="195"/>
      <point x="495" y="192.75" type="curve" smooth="yes"/>
      <point x="495" y="107.25" type="line" smooth="yes"/>
      <point x="495" y="105"/>
      <point x="495" y="105"/>
      <point x="492.75" y="105" type="curve" smooth="yes"/>
      <point x="407.25" y="105" type="line" smooth="yes"/>
      <point x="405" y="105"/>
      <point x="405" y="105"/>
      <point x="405" y="107.25" type="curve" smooth="yes"/>
      <point x="405" y="192.75" type="line" smooth="yes"/>
      <point x="405" y="195"/>
      <point x="405" y="195"/>
      <point x="407.25" y="195" type="curve"/>
    </contour>
    <contour>
      <point x="207.25" y="195" type="line"/>
      <point x="292.75" y="195" type="line" smooth="yes"/>
      <point x="295" y="195"/>
      <point x="295" y="195"/>
      <point x="295" y="192.75" type="curve" smooth="yes"/>
      <point x="295" y="107.25" type="line" smooth="yes"/>
      <point x="295" y="105"/>
      <point x="295" y="105"/>
      <point x="292.75" y="105" type="curve" smooth="yes"/>
      <point x="207.25" y="105" type="line" smooth="yes"/>
      <point x="205" y="105"/>
      <point x="205" y="105"/>
      <point x="205" y="107.25" type="curve" smooth="yes"/>
      <point x="205" y="192.75" type="line" smooth="yes"/>
      <point x="205" y="195"/>
      <point x="205" y="195"/>
      <point x="207.25" y="195" type="curve"/>
    </contour>
    <contour>
      <point x="107.25" y="195" type="line"/>
      <point x="192.75" y="195" type="line" smooth="yes"/>
      <point x="195" y="195"/>
      <point x="195" y="195"/>
      <point x="195" y="192.75" type="curve" smooth="yes"/>
      <point x="195" y="107.25" type="line" smooth="yes"/>
      <point x="195" y="105"/>
      <point x="195" y="105"/>
      <point x="192.75" y="105" type="curve" smooth="yes"/>
      <point x="107.25" y="105" type="line" smooth="yes"/>
      <point x="105" y="105"/>
      <point x="105" y="105"/>
      <point x="105" y="107.25" type="curve" smooth="yes"/>
      <point x="105" y="192.75" type="line" smooth="yes"/>
      <point x="105" y="195"/>
      <point x="105" y="195"/>
      <point x="107.25" y="195" type="curve"/>
    </contour>
    <contour>
      <point x="407.25" y="295" type="line"/>
      <point x="492.75" y="295" type="line" smooth="yes"/>
      <point x="495" y="295"/>
      <point x="495" y="295"/>
      <point x="495" y="292.75" type="curve" smooth="yes"/>
      <point x="495" y="207.25" type="line" smooth="yes"/>
      <point x="495" y="205"/>
      <point x="495" y="205"/>
      <point x="492.75" y="205" type="curve" smooth="yes"/>
      <point x="407.25" y="205" type="line" smooth="yes"/>
      <point x="405" y="205"/>
      <point x="405" y="205"/>
      <point x="405" y="207.25" type="curve" smooth="yes"/>
      <point x="405" y="292.75" type="line" smooth="yes"/>
      <point x="405" y="295"/>
      <point x="405" y="295"/>
      <point x="407.25" y="295" type="curve"/>
    </contour>
    <contour>
      <point x="307.25" y="295" type="line"/>
      <point x="392.75" y="295" type="line" smooth="yes"/>
      <point x="395" y="295"/>
      <point x="395" y="295"/>
      <point x="395" y="292.75" type="curve" smooth="yes"/>
      <point x="395" y="207.25" type="line" smooth="yes"/>
      <point x="395" y="205"/>
      <point x="395" y="205"/>
      <point x="392.75" y="205" type="curve" smooth="yes"/>
      <point x="307.25" y="205" type="line" smooth="yes"/>
      <point x="305" y="205"/>
      <point x="305" y="205"/>
      <point x="305" y="207.25" type="curve" smooth="yes"/>
      <point x="305" y="292.75" type="line" smooth="yes"/>
      <point x="305" y="295"/>
      <point x="305" y="295"/>
      <point x="307.25" y="295" type="curve"/>
    </contour>
    <contour>
      <point x="7.25" y="295" type="line"/>
      <point x="92.75" y="295" type="line" smooth="yes"/>
      <point x="95" y="295"/>
      <point x="95" y="295"/>
      <point x="95" y="292.75" type="curve" smooth="yes"/>
      <point x="95" y="207.25" type="line" smooth="yes"/>
      <point x="95" y="205"/>
      <point x="95" y="205"/>
      <point x="92.75" y="205" type="curve" smooth="yes"/>
      <point x="7.25" y="205" type="line" smooth="yes"/>
      <point x="5" y="205"/>
      <point x="5" y="205"/>
      <point x="5" y="207.25" type="curve" smooth="yes"/>
      <point x="5" y="292.75" type="line" smooth="yes"/>
      <point x="5" y="295"/>
      <point x="5" y="295"/>
      <point x="7.25" y="295" type="curve"/>
    </contour>
    <contour>
      <point x="407.25" y="395" type="line"/>
      <point x="492.75" y="395" type="line" smooth="yes"/>
      <point x="495" y="395"/>
      <point x="495" y="395"/>
      <point x="495" y="392.75" type="curve" smooth="yes"/>
      <point x="495" y="307.25" type="line" smooth="yes"/>
      <point x="495" y="305"/>
      <point x="495" y="305"/>
      <point x="492.75" y="305" type="curve" smooth="yes"/>
      <point x="407.25" y="305" type="line" smooth="yes"/>
      <point x="405" y="305"/>
      <point x="405" y="305"/>
      <point x="405" y="307.25" type="curve" smooth="yes"/>
      <point x="405" y="392.75" type="line" smooth="yes"/>
      <point x="405" y="395"/>
      <point x="405" y="395"/>
      <point x="407.25" y="395" type="curve"/>
    </contour>
    <contour>
      <point x="7.25" y="395" type="line"/>
      <point x="92.75" y="395" type="line" smooth="yes"/>
      <point x="95" y="395"/>
      <point x="95" y="395"/>
      <point x="95" y="392.75" type="curve" smooth="yes"/>
      <point x="95" y="307.25" type="line" smooth="yes"/>
      <point x="95" y="305"/>
      <point x="95" y="305"/>
      <point x="92.75" y="305" type="curve" smooth="yes"/>
      <point x="7.25" y="305" type="line" smooth="yes"/>
      <point x="5" y="305"/>
      <point x="5" y="305"/>
      <point x="5" y="307.25" type="curve" smooth="yes"/>
      <point x="5" y="392.75" type="line" smooth="yes"/>
      <point x="5" y="395"/>
      <point x="5" y="395"/>
      <point x="7.25" y="395" type="curve"/>
    </contour>
    <contour>
      <point x="407.25" y="495" type="line"/>
      <point x="492.75" y="495" type="line" smooth="yes"/>
      <point x="495" y="495"/>
      <point x="495" y="495"/>
      <point x="495" y="492.75" type="curve" smooth="yes"/>
      <point x="495" y="407.25" type="line" smooth="yes"/>
      <point x="495" y="405"/>
      <point x="495" y="405"/>
      <point x="492.75" y="405" type="curve" smooth="yes"/>
      <point x="407.25" y="405" type="line" smooth="yes"/>
      <point x="405" y="405"/>
      <point x="405" y="405"/>
      <point x="405" y="407.25" type="curve" smooth="yes"/>
      <point x="405" y="492.75" type="line" smooth="yes"/>
      <point x="405" y="495"/>
      <point x="405" y="495"/>
      <point x="407.25" y="495" type="curve"/>
    </contour>
    <contour>
      <point x="7.25" y="495" type="line"/>
      <point x="92.75" y="495" type="line" smooth="yes"/>
      <point x="95" y="495"/>
      <point x="95" y="495"/>
      <point x="95" y="492.75" type="curve" smooth="yes"/>
      <point x="95" y="407.25" type="line" smooth="yes"/>
      <point x="95" y="405"/>
      <point x="95" y="405"/>
      <point x="92.75" y="405" type="curve" smooth="yes"/>
      <point x="7.25" y="405" type="line" smooth="yes"/>
      <point x="5" y="405"/>
      <point x="5" y="405"/>
      <point x="5" y="407.25" type="curve" smooth="yes"/>
      <point x="5" y="492.75" type="line" smooth="yes"/>
      <point x="5" y="495"/>
      <point x="5" y="495"/>
      <point x="7.25" y="495" type="curve"/>
    </contour>
    <contour>
      <point x="207.25" y="595" type="line"/>
      <point x="292.75" y="595" type="line" smooth="yes"/>
      <point x="295" y="595"/>
      <point x="295" y="595"/>
      <point x="295" y="592.75" type="curve" smooth="yes"/>
      <point x="295" y="507.25" type="line" smooth="yes"/>
      <point x="295" y="505"/>
      <point x="295" y="505"/>
      <point x="292.75" y="505" type="curve" smooth="yes"/>
      <point x="207.25" y="505" type="line" smooth="yes"/>
      <point x="205" y="505"/>
      <point x="205" y="505"/>
      <point x="205" y="507.25" type="curve" smooth="yes"/>
      <point x="205" y="592.75" type="line" smooth="yes"/>
      <point x="205" y="595"/>
      <point x="205" y="595"/>
      <point x="207.25" y="595" type="curve"/>
    </contour>
    <contour>
      <point x="307.25" y="695" type="line"/>
      <point x="392.75" y="695" type="line" smooth="yes"/>
      <point x="395" y="695"/>
      <point x="395" y="695"/>
      <point x="395" y="692.75" type="curve" smooth="yes"/>
      <point x="395" y="607.25" type="line" smooth="yes"/>
      <point x="395" y="605"/>
      <point x="395" y="605"/>
      <point x="392.75" y="605" type="curve" smooth="yes"/>
      <point x="307.25" y="605" type="line" smooth="yes"/>
      <point x="305" y="605"/>
      <point x="305" y="605"/>
      <point x="305" y="607.25" type="curve" smooth="yes"/>
      <point x="305" y="692.75" type="line" smooth="yes"/>
      <point x="305" y="695"/>
      <point x="305" y="695"/>
      <point x="307.25" y="695" type="curve"/>
    </contour>
  </outline>
</glyph>
<glyph name="Umacron" format="2">
  <advance width="600"/>
  <unicode hex="016A"/>
  <outline>
    <contour>
      <point x="307" y="95" type="line"/>
      <point x="393" y="95" type="line" smooth="yes"/>
      <point x="395" y="95"/>
      <point x="395" y="95"/>
      <point x="395" y="93" type="curve" smooth="yes"/>
      <point x="395" y="7" type="line" smooth="yes"/>
      <point x="395" y="5"/>
      <point x="395" y="5"/>
      <point x="393" y="5" type="curve" smooth="yes"/>
      <point x="307" y="5" type="line" smooth="yes"/>
      <point x="305" y="5"/>
      <point x="305" y="5"/>
      <point x="305" y="7" type="curve" smooth="yes"/>
      <point x="305" y="93" type="line" smooth="yes"/>
      <point x="305" y="95"/>
      <point x="305" y="95"/>
      <point x="307" y="95" type="curve"/>
    </contour>
    <contour>
      <point x="207" y="95" type="line"/>
      <point x="293" y="95" type="line" smooth="yes"/>
      <point x="295" y="95"/>
      <point x="295" y="95"/>
      <point x="295" y="93" type="curve" smooth="yes"/>
      <point x="295" y="7" type="line" smooth="yes"/>
      <point x="295" y="5"/>
      <point x="295" y="5"/>
      <point x="293" y="5" type="curve" smooth="yes"/>
      <point x="207" y="5" type="line" smooth="yes"/>
      <point x="205" y="5"/>
      <point x="205" y="5"/>
      <point x="205" y="7" type="curve" smooth="yes"/>
      <point x="205" y="93" type="line" smooth="yes"/>
      <point x="205" y="95"/>
      <point x="205" y="95"/>
      <point x="207" y="95" type="curve"/>
    </contour>
    <contour>
      <point x="107" y="95" type="line"/>
      <point x="193" y="95" type="line" smooth="yes"/>
      <point x="195" y="95"/>
      <point x="195" y="95"/>
      <point x="195" y="93" type="curve" smooth="yes"/>
      <point x="195" y="7" type="line" smooth="yes"/>
      <point x="195" y="5"/>
      <point x="195" y="5"/>
      <point x="193" y="5" type="curve" smooth="yes"/>
      <point x="107" y="5" type="line" smooth="yes"/>
      <point x="105" y="5"/>
      <point x="105" y="5"/>
      <point x="105" y="7" type="curve" smooth="yes"/>
      <point x="105" y="93" type="line" smooth="yes"/>
      <point x="105" y="95"/>
      <point x="105" y="95"/>
      <point x="107" y="95" type="curve"/>
    </contour>
    <contour>
      <point x="407" y="195" type="line"/>
      <point x="493" y="195" type="line" smooth="yes"/>
      <point x="495" y="195"/>
      <point x="495" y="195"/>
      <point x="495" y="193" type="curve" smooth="yes"/>
      <point x="495" y="107" type="line" smooth="yes"/>
      <point x="495" y="105"/>
      <point x="495" y="105"/>
      <point x="493" y="105" type="curve" smooth="yes"/>
      <point x="407" y="105" type="line" smooth="yes"/>
      <point x="405" y="105"/>
      <point x="405" y="105"/>
      <point x="405" y="107" type="curve" smooth="yes"/>
      <point x="405" y="193" type="line" smooth="yes"/>
      <point x="405" y="195"/>
      <point x="405" y="195"/>
      <point x="407" y="195" type="curve"/>
    </contour>
    <contour>
      <point x="7" y="195" type="line"/>
      <point x="93" y="195" type="line" smooth="yes"/>
      <point x="95" y="195"/>
      <point x="95" y="195"/>
      <point x="95" y="193" type="curve" smooth="yes"/>
      <point x="95" y="107" type="line" smooth="yes"/>
      <point x="95" y="105"/>
      <point x="95" y="105"/>
      <point x="93" y="105" type="curve" smooth="yes"/>
      <point x="7" y="105" type="line" smooth="yes"/>
      <point x="5" y="105"/>
      <point x="5" y="105"/>
      <point x="5" y="107" type="curve" smooth="yes"/>
      <point x="5" y="193" type="line" smooth="yes"/>
      <point x="5" y="195"/>
      <point x="5" y="195"/>
      <point x="7" y="195" type="curve"/>
    </contour>
    <contour>
      <point x="407" y="295" type="line"/>
      <point x="493" y="295" type="line" smooth="yes"/>
      <point x="495" y="295"/>
      <point x="495" y="295"/>
      <point x="495" y="293" type="curve" smooth="yes"/>
      <point x="495" y="207" type="line" smooth="yes"/>
      <point x="495" y="205"/>
      <point x="495" y="205"/>
      <point x="493" y="205" type="curve" smooth="yes"/>
      <point x="407" y="205" type="line" smooth="yes"/>
      <point x="405" y="205"/>
      <point x="405" y="205"/>
      <point x="405" y="207" type="curve" smooth="yes"/>
      <point x="405" y="293" type="line" smooth="yes"/>
      <point x="405" y="295"/>
      <point x="405" y="295"/>
      <point x="407" y="295" type="curve"/>
    </contour>
    <contour>
      <point x="7" y="295" type="line"/>
      <point x="93" y="295" type="line" smooth="yes"/>
      <point x="95" y="295"/>
      <point x="95" y="295"/>
      <point x="95" y="293" type="curve" smooth="yes"/>
      <point x="95" y="207" type="line" smooth="yes"/>
      <point x="95" y="205"/>
      <point x="95" y="205"/>
      <point x="93" y="205" type="curve" smooth="yes"/>
      <point x="7" y="205" type="line" smooth="yes"/>
      <point x="5" y="205"/>
      <point x="5" y="205"/>
      <point x="5" y="207" type="curve" smooth="yes"/>
      <point x="5" y="293" type="line" smooth="yes"/>
      <point x="5" y="295"/>
      <point x="5" y="295"/>
      <point x="7" y="295" type="curve"/>
    </contour>
    <contour>
      <point x="407" y="395" type="line"/>
      <point x="493" y="395" type="line" smooth="yes"/>
      <point x="495" y="395"/>
      <point x="495" y="395"/>
      <point x="495" y="393" type="curve" smooth="yes"/>
      <point x="495" y="307" type="line" smooth="yes"/>
      <point x="495" y="305"/>
      <point x="495" y="305"/>
      <point x="493" y="305" type="curve" smooth="yes"/>
      <point x="407" y="305" type="line" smooth="yes"/>
      <point x="405" y="305"/>
      <point x="405" y="305"/>
      <point x="405" y="307" type="curve" smooth="yes"/>
      <point x="405" y="393" type="line" smooth="yes"/>
      <point x="405" y="395"/>
      <point x="405" y="395"/>
      <point x="407" y="395" type="curve"/>
    </contour>
    <contour>
      <point x="7" y="395" type="line"/>
      <point x="93" y="395" type="line" smooth="yes"/>
      <point x="95" y="395"/>
      <point x="95" y="395"/>
      <point x="95" y="393" type="curve" smooth="yes"/>
      <point x="95" y="307" type="line" smooth="yes"/>
      <point x="95" y="305"/>
      <point x="95" y="305"/>
      <point x="93" y="305" type="curve" smooth="yes"/>
      <point x="7" y="305" type="line" smooth="yes"/>
      <point x="5" y="305"/>
      <point x="5" y="305"/>
      <point x="5" y="307" type="curve" smooth="yes"/>
      <point x="5" y="393" type="line" smooth="yes"/>
      <point x="5" y="395"/>
      <point x="5" y="395"/>
      <point x="7" y="395" type="curve"/>
    </contour>
    <contour>
      <point x="407" y="495" type="line"/>
      <point x="493" y="495" type="line" smooth="yes"/>
      <point x="495" y="495"/>
      <point x="495" y="495"/>
      <point x="495" y="493" type="curve" smooth="yes"/>
      <point x="495" y="407" type="line" smooth="yes"/>
      <point x="495" y="405"/>
      <point x="495" y="405"/>
      <point x="493" y="405" type="curve" smooth="yes"/>
      <point x="407" y="405" type="line" smooth="yes"/>
      <point x="405" y="405"/>
      <point x="405" y="405"/>
      <point x="405" y="407" type="curve" smooth="yes"/>
      <point x="405" y="493" type="line" smooth="yes"/>
      <point x="405" y="495"/>
      <point x="405" y="495"/>
      <point x="407" y="495" type="curve"/>
    </contour>
    <contour>
      <point x="7" y="495" type="line"/>
      <point x="93" y="495" type="line" smooth="yes"/>
      <point x="95" y="495"/>
      <point x="95" y="495"/>
      <point x="95" y="493" type="curve" smooth="yes"/>
      <point x="95" y="407" type="line" smooth="yes"/>
      <point x="95" y="405"/>
      <point x="95" y="405"/>
      <point x="93" y="405" type="curve" smooth="yes"/>
      <point x="7" y="405" type="line" smooth="yes"/>
      <point x="5" y="405"/>
      <point x="5" y="405"/>
      <point x="5" y="407" type="curve" smooth="yes"/>
      <point x="5" y="493" type="line" smooth="yes"/>
      <point x="5" y="495"/>
      <point x="5" y="495"/>
      <point x="7" y="495" type="curve"/>
    </contour>
    <contour>
      <point x="407" y="595" type="line"/>
      <point x="493" y="595" type="line" smooth="yes"/>
      <point x="495" y="595"/>
      <point x="495" y="595"/>
      <point x="495" y="593" type="curve" smooth="yes"/>
      <point x="495" y="507" type="line" smooth="yes"/>
      <point x="495" y="505"/>
      <point x="495" y="505"/>
      <point x="493" y="505" type="curve" smooth="yes"/>
      <point x="407" y="505" type="line" smooth="yes"/>
      <point x="405" y="505"/>
      <point x="405" y="505"/>
      <point x="405" y="507" type="curve" smooth="yes"/>
      <point x="405" y="593" type="line" smooth="yes"/>
      <point x="405" y="595"/>
      <point x="405" y="595"/>
      <point x="407" y="595" type="curve"/>
    </contour>
    <contour>
      <point x="7" y="595" type="line"/>
      <point x="93" y="595" type="line" smooth="yes"/>
      <point x="95" y="595"/>
      <point x="95" y="595"/>
      <point x="95" y="593" type="curve" smooth="yes"/>
      <point x="95" y="507" type="line" smooth="yes"/>
      <point x="95" y="505"/>
      <point x="95" y="505"/>
      <point x="93" y="505" type="curve" smooth="yes"/>
      <point x="7" y="505" type="line" smooth="yes"/>
      <point x="5" y="505"/>
      <point x="5" y="505"/>
      <point x="5" y="507" type="curve" smooth="yes"/>
      <point x="5" y="593" type="line" smooth="yes"/>
      <point x="5" y="595"/>
      <point x="5" y="595"/>
      <point x="7" y="595" type="curve"/>
    </contour>
    <contour>
      <point x="307" y="795" type="line"/>
      <point x="393" y="795" type="line" smooth="yes"/>
      <point x="395" y="795"/>
      <point x="395" y="795"/>
      <point x="395" y="793" type="curve" smooth="yes"/>
      <point x="395" y="707" type="line" smooth="yes"/>
      <point x="395" y="705"/>
      <point x="395" y="705"/>
      <point x="393" y="705" type="curve" smooth="yes"/>
      <point x="307" y="705" type="line" smooth="yes"/>
      <point x="305" y="705"/>
      <point x="305" y="705"/>
      <point x="305" y="707" type="curve" smooth="yes"/>
      <point x="305" y="793" type="line" smooth="yes"/>
      <point x="305" y="795"/>
      <point x="305" y="795"/>
      <point x="307" y="795" type="curve"/>
    </contour>
    <contour>
      <point x="207" y="795" type="line"/>
      <point x="293" y="795" type="line" smooth="yes"/>
      <point x="295" y="795"/>
      <point x="295" y="795"/>
      <point x="295" y="793" type="curve" smooth="yes"/>
      <point x="295" y="707" type="line" smooth="yes"/>
      <point x="295" y="705"/>
      <point x="295" y="705"/>
      <point x="293" y="705" type="curve" smooth="yes"/>
      <point x="207" y="705" type="line" smooth="yes"/>
      <point x="205" y="705"/>
      <point x="205" y="705"/>
      <point x="205" y="707" type="curve" smooth="yes"/>
      <point x="205" y="793" type="line" smooth="yes"/>
      <point x="205" y="795"/>
      <point x="205" y="795"/>
      <point x="207" y="795" type="curve"/>
    </contour>
    <contour>
      <point x="107" y="795" type="line"/>
      <point x="193" y="795" type="line" smooth="yes"/>
      <point x="195" y="795"/>
      <point x="195" y="795"/>
      <point x="195" y="793" type="curve" smooth="yes"/>
      <point x="195" y="707" type="line" smooth="yes"/>
      <point x="195" y="705"/>
      <point x="195" y="705"/>
      <point x="193" y="705" type="curve" smooth="yes"/>
      <point x="107" y="705" type="line" smooth="yes"/>
      <point x="105" y="705"/>
      <point x="105" y="705"/>
      <point x="105" y="707" type="curve" smooth="yes"/>
      <point x="105" y="793" type="line" smooth="yes"/>
      <point x="105" y="795"/>
      <point x="105" y="795"/>
      <point x="107" y="795" type="curve"/>
    </contour>
  </outline>
</glyph>
<glyph name="zdotaccent" format="2">
  <advance width="600"/>
  <unicode hex="017C"/>
  <outline>
    <contour>
      <point x="407.25" y="95" type="line"/>
      <point x="492.75" y="95" type="line" smooth="yes"/>
      <point x="495" y="95"/>
      <point x="495" y="95"/>
      <point x="495" y="92.75" type="curve" smooth="yes"/>
      <point x="495" y="7.25" type="line" smooth="yes"/>
      <point x="495" y="5"/>
      <point x="495" y="5"/>
      <point x="492.75" y="5" type="curve" smooth="yes"/>
      <point x="407.25" y="5" type="line" smooth="yes"/>
      <point x="405" y="5"/>
      <point x="405" y="5"/>
      <point x="405" y="7.25" type="curve" smooth="yes"/>
      <point x="405" y="92.75" type="line" smooth="yes"/>
      <point x="405" y="95"/>
      <point x="405" y="95"/>
      <point x="407.25" y="95" type="curve"/>
    </contour>
    <contour>
      <point x="307.25" y="95" type="line"/>
      <point x="392.75" y="95" type="line" smooth="yes"/>
      <point x="395" y="95"/>
      <point x="395" y="95"/>
      <point x="395" y="92.75" type="curve" smooth="yes"/>
      <point x="395" y="7.25" type="line" smooth="yes"/>
      <point x="395" y="5"/>
      <point x="395" y="5"/>
      <point x="392.75" y="5" type="curve" smooth="yes"/>
      <point x="307.25" y="5" type="line" smooth="yes"/>
      <point x="305" y="5"/>
      <point x="305" y="5"/>
      <point x="305" y="7.25" type="curve" smooth="yes"/>
      <point x="305" y="92.75" type="line" smooth="yes"/>
      <point x="305" y="95"/>
      <point x="305" y="95"/>
      <point x="307.25" y="95" type="curve"/>
    </contour>
    <contour>
      <point x="207.25" y="95" type="line"/>
      <point x="292.75" y="95" type="line" smooth="yes"/>
      <point x="295" y="95"/>
      <point x="295" y="95"/>
      <point x="295" y="92.75" type="curve" smooth="yes"/>
      <point x="295" y="7.25" type="line" smooth="yes"/>
      <point x="295" y="5"/>
      <point x="295" y="5"/>
      <point x="292.75" y="5" type="curve" smooth="yes"/>
      <point x="207.25" y="5" type="line" smooth="yes"/>
      <point x="205" y="5"/>
      <point x="205" y="5"/>
      <point x="205" y="7.25" type="curve" smooth="yes"/>
      <point x="205" y="92.75" type="line" smooth="yes"/>
      <point x="205" y="95"/>
      <point x="205" y="95"/>
      <point x="207.25" y="95" type="curve"/>
    </contour>
    <contour>
      <point x="107.25" y="95" type="line"/>
      <point x="192.75" y="95" type="line" smooth="yes"/>
      <point x="195" y="95"/>
      <point x="195" y="95"/>
      <point x="195" y="92.75" type="curve" smooth="yes"/>
      <point x="195" y="7.25" type="line" smooth="yes"/>
      <point x="195" y="5"/>
      <point x="195" y="5"/>
      <point x="192.75" y="5" type="curve" smooth="yes"/>
      <point x="107.25" y="5" type="line" smooth="yes"/>
      <point x="105" y="5"/>
      <point x="105" y="5"/>
      <point x="105" y="7.25" type="curve" smooth="yes"/>
      <point x="105" y="92.75" type="line" smooth="yes"/>
      <point x="105" y="95"/>
      <point x="105" y="95"/>
      <point x="107.25" y="95" type="curve"/>
    </contour>
    <contour>
      <point x="7.25" y="95" type="line"/>
      <point x="92.75" y="95" type="line" smooth="yes"/>
      <point x="95" y="95"/>
      <point x="95" y="95"/>
      <point x="95" y="92.75" type="curve" smooth="yes"/>
      <point x="95" y="7.25" type="line" smooth="yes"/>
      <point x="95" y="5"/>
      <point x="95" y="5"/>
      <point x="92.75" y="5" type="curve" smooth="yes"/>
      <point x="7.25" y="5" type="line" smooth="yes"/>
      <point x="5" y="5"/>
      <point x="5" y="5"/>
      <point x="5" y="7.25" type="curve" smooth="yes"/>
      <point x="5" y="92.75" type="line" smooth="yes"/>
      <point x="5" y="95"/>
      <point x="5" y="95"/>
      <point x="7.25" y="95" type="curve"/>
    </contour>
    <contour>
      <point x="107.25" y="195" type="line"/>
      <point x="192.75" y="195" type="line" smooth="yes"/>
      <point x="195" y="195"/>
      <point x="195" y="195"/>
      <point x="195" y="192.75" type="curve" smooth="yes"/>
      <point x="195" y="107.25" type="line" smooth="yes"/>
      <point x="195" y="105"/>
      <point x="195" y="105"/>
      <point x="192.75" y="105" type="curve" smooth="yes"/>
      <point x="107.25" y="105" type="line" smooth="yes"/>
      <point x="105" y="105"/>
      <point x="105" y="105"/>
      <point x="105" y="107.25" type="curve" smooth="yes"/>
      <point x="105" y="192.75" type="line" smooth="yes"/>
      <point x="105" y="195"/>
      <point x="105" y="195"/>
      <point x="107.25" y="195" type="curve"/>
    </contour>
    <contour>
      <point x="207.25" y="295" type="line"/>
      <point x="292.75" y="295" type="line" smooth="yes"/>
      <point x="295" y="295"/>
      <point x="295" y="295"/>
      <point x="295" y="292.75" type="curve" smooth="yes"/>
      <point x="295" y="207.25" type="line" smooth="yes"/>
      <point x="295" y="205"/>
      <point x="295" y="205"/>
      <point x="292.75" y="205" type="curve" smooth="yes"/>
      <point x="207.25" y="205" type="line" smooth="yes"/>
      <point x="205" y="205"/>
      <point x="205" y="205"/>
      <point x="205" y="207.25" type="curve" smooth="yes"/>
      <point x="205" y="292.75" type="line" smooth="yes"/>
      <point x="205" y="295"/>
      <point x="205" y="295"/>
      <point x="207.25" y="295" type="curve"/>
    </contour>
    <contour>
      <point x="307.25" y="395" type="line"/>
      <point x="392.75" y="395" type="line" smooth="yes"/>
      <point x="395" y="395"/>
      <point x="395" y="395"/>
      <point x="395" y="392.75" type="curve" smooth="yes"/>
      <point x="395" y="307.25" type="line" smooth="yes"/>
      <point x="395" y="305"/>
      <point x="395" y="305"/>
      <point x="392.75" y="305" type="curve" smooth="yes"/>
      <point x="307.25" y="305" type="line" smooth="yes"/>
      <point x="305" y="305"/>
      <point x="305" y="305"/>
      <point x="305" y="307.25" type="curve" smooth="yes"/>
      <point x="305" y="392.75" type="line" smooth="yes"/>
      <point x="305" y="395"/>
      <point x="305" y="395"/>
      <point x="307.25" y="395" type="curve"/>
    </contour>
    <contour>
      <point x="407.25" y="495" type="line"/>
      <point x="492.75" y="495" type="line" smooth="yes"/>
      <point x="495" y="495"/>
      <point x="495" y="495"/>
      <point x="495" y="492.75" type="curve" smooth="yes"/>
      <point x="495" y="407.25" type="line" smooth="yes"/>
      <point x="495" y="405"/>
      <point x="495" y="405"/>
      <point x="492.75" y="405" type="curve" smooth="yes"/>
      <point x="407.25" y="405" type="line" smooth="yes"/>
      <point x="405" y="405"/>
      <point x="405" y="405"/>
      <point x="405" y="407.25" type="curve" smooth="yes"/>
      <point x="405" y="492.75" type="line" smooth="yes"/>
      <point x="405" y="495"/>
      <point x="405" y="495"/>
      <point x="407.25" y="495" type="curve"/>
    </contour>
    <contour>
      <point x="307.25" y="495" type="line"/>
      <point x="392.75" y="495" type="line" smooth="yes"/>
      <point x="395" y="495"/>
      <point x="395" y="495"/>
      <point x="395" y="492.75" type="curve" smooth="yes"/>
      <point x="395" y="407.25" type="line" smooth="yes"/>
      <point x="395" y="405"/>
      <point x="395" y="405"/>
      <point x="392.75" y="405" type="curve" smooth="yes"/>
      <point x="307.25" y="405" type="line" smooth="yes"/>
      <point x="305" y="405"/>
      <point x="305" y="405"/>
      <point x="305" y="407.25" type="curve" smooth="yes"/>
      <point x="305" y="492.75" type="line" smooth="yes"/>
      <point x="305" y="495"/>
      <point x="305" y="495"/>
      <point x="307.25" y="495" type="curve"/>
    </contour>
    <contour>
      <point x="207.25" y="495" type="line"/>
      <point x="292.75" y="495" type="line" smooth="yes"/>
      <point x="295" y="495"/>
      <point x="295" y="495"/>
      <point x="295" y="492.75" type="curve" smooth="yes"/>
      <point x="295" y="407.25" type="line" smooth="yes"/>
      <point x="295" y="405"/>
      <point x="295" y="405"/>
      <point x="292.75" y="405" type="curve" smooth="yes"/>
      <point x="207.25" y="405" type="line" smooth="yes"/>
      <point x="205" y="405"/>
      <point x="205" y="405"/>
      <point x="205" y="407.25" type="curve" smooth="yes"/>
      <point x="205" y="492.75" type="line" smooth="yes"/>
      <point x="205" y="495"/>
      <point x="205" y="495"/>
      <point x="207.25" y="495" type="curve"/>
    </contour>
    <contour>
      <point x="107.25" y="495" type="line"/>
      <point x="192.75" y="495" type="line" smooth="yes"/>
      <point x="195" y="495"/>
      <point x="195" y="495"/>
      <point x="195" y="492.75" type="curve" smooth="yes"/>
      <point x="195" y="407.25" type="line" smooth="yes"/>
      <point x="195" y="405"/>
      <point x="195" y="405"/>
      <point x="192.75" y="405" type="curve" smooth="yes"/>
      <point x="107.25" y="405" type="line" smooth="yes"/>
      <point x="105" y="405"/>
      <point x="105" y="405"/>
      <point x="105" y="407.25" type="curve" smooth="yes"/>
      <point x="105" y="492.75" type="line" smooth="yes"/>
      <point x="105" y="495"/>
      <point x="105" y="495"/>
      <point x="107.25" y="495" type="curve"/>
    </contour>
    <contour>
      <point x="7.25" y="495" type="line"/>
      <point x="92.75" y="495" type="line" smooth="yes"/>
      <point x="95" y="495"/>
      <point x="95" y="495"/>
      <point x="95" y="492.75" type="curve" smooth="yes"/>
      <point x="95" y="407.25" type="line" smooth="yes"/>
      <point x="95" y="405"/>
      <point x="95" y="405"/>
      <point x="92.75" y="405" type="curve" smooth="yes"/>
      <point x="7.25" y="405" type="line" smooth="yes"/>
      <point x="5" y="405"/>
      <point x="5" y="405"/>
      <point x="5" y="407.25" type="curve" smooth="yes"/>
      <point x="5" y="492.75" type="line" smooth="yes"/>
      <point x="5" y="495"/>
      <point x="5" y="495"/>
      <point x="7.25" y="495" type="curve"/>
    </contour>
    <contour>
      <point x="207.25" y="695" type="line"/>
      <point x="292.75" y="695" type="line" smooth="yes"/>
      <point x="295" y="695"/>
      <point x="295" y="695"/>
      <point x="295" y="692.75" type="curve" smooth="yes"/>
      <point x="295" y="607.25" type="line" smooth="yes"/>
      <point x="295" y="605"/>
      <point x="295" y="605"/>
      <point x="292.75" y="605" type="curve" smooth="yes"/>
      <point x="207.25" y="605" type="line" smooth="yes"/>
      <point x="205" y="605"/>
      <point x="205" y="605"/>
      <point x="205" y="607.25" type="curve" smooth="yes"/>
      <point x="205" y="692.75" type="line" smooth="yes"/>
      <point x="205" y="695"/>
      <point x="205" y="695"/>
      <point x="207.25" y="695" type="curve"/>
    </contour>
  </outline>
</glyph>
<glyph name="breve" format="2">
  <advance width="600"/>
  <unicode hex="02D8"/>
  <outline>
    <contour>
      <point x="307" y="695" type="line"/>
      <point x="393" y="695" type="line" smooth="yes"/>
      <point x="395" y="695"/>
      <point x="395" y="695"/>
      <point x="395" y="693" type="curve" smooth="yes"/>
      <point x="395" y="607" type="line" smooth="yes"/>
      <point x="395" y="605"/>
      <point x="395" y="605"/>
      <point x="393" y="605" type="curve" smooth="yes"/>
      <point x="307" y="605" type="line" smooth="yes"/>
      <point x="305" y="605"/>
      <point x="305" y="605"/>
      <point x="305" y="607" type="curve" smooth="yes"/>
      <point x="305" y="693" type="line" smooth="yes"/>
      <point x="305" y="695"/>
      <point x="305" y="695"/>
      <point x="307" y="695" type="curve"/>
    </contour>
    <contour>
      <point x="207" y="695" type="line"/>
      <point x="293" y="695" type="line" smooth="yes"/>
      <point x="295" y="695"/>
      <point x="295" y="695"/>
      <point x="295" y="693" type="curve" smooth="yes"/>
      <point x="295" y="607" type="line" smooth="yes"/>
      <point x="295" y="605"/>
      <point x="295" y="605"/>
      <point x="293" y="605" type="curve" smooth="yes"/>
      <point x="207" y="605" type="line" smooth="yes"/>
      <point x="205" y="605"/>
      <point x="205" y="605"/>
      <point x="205" y="607" type="curve" smooth="yes"/>
      <point x="205" y="693" type="line" smooth="yes"/>
      <point x="205" y="695"/>
      <point x="205" y="695"/>
      <point x="207" y="695" type="curve"/>
    </contour>
    <contour>
      <point x="107" y="695" type="line"/>
      <point x="193" y="695" type="line" smooth="yes"/>
      <point x="195" y="695"/>
      <point x="195" y="695"/>
      <point x="195" y="693" type="curve" smooth="yes"/>
      <point x="195" y="607" type="line" smooth="yes"/>
      <point x="195" y="605"/>
      <point x="195" y="605"/>
      <point x="193" y="605" type="curve" smooth="yes"/>
      <point x="107" y="605" type="line" smooth="yes"/>
      <point x="105" y="605"/>
      <point x="105" y="605"/>
      <point x="105" y="607" type="curve" smooth="yes"/>
      <point x="105" y="693" type="line" smooth="yes"/>
      <point x="105" y="695"/>
      <point x="105" y="695"/>
      <point x="107" y="695" type="curve"/>
    </contour>
    <contour>
      <point x="407" y="795" type="line"/>
      <point x="493" y="795" type="line" smooth="yes"/>
      <point x="495" y="795"/>
      <point x="495" y="795"/>
      <point x="495" y="793" type="curve" smooth="yes"/>
      <point x="495" y="707" type="line" smooth="yes"/>
      <point x="495" y="705"/>
      <point x="495" y="705"/>
      <point x="493" y="705" type="curve" smooth="yes"/>
      <point x="407" y="705" type="line" smooth="yes"/>
      <point x="405" y="705"/>
      <point x="405" y="705"/>
      <point x="405" y="707" type="curve" smooth="yes"/>
      <point x="405" y="793" type="line" smooth="yes"/>
      <point x="405" y="795"/>
      <point x="405" y="795"/>
      <point x="407" y="795" type="curve"/>
    </contour>
    <contour>
      <point x="7" y="795" type="line"/>
      <point x="93" y="795" type="line" smooth="yes"/>
      <point x="95" y="795"/>
      <point x="95" y="795"/>
      <point x="95" y="793" type="curve" smooth="yes"/>
      <point x="95" y="707" type="line" smooth="yes"/>
      <point x="95" y="705"/>
      <point x="95" y="705"/>
      <point x="93" y="705" type="curve" smooth="yes"/>
      <point x="7" y="705" type="line" smooth="yes"/>
      <point x="5" y="705"/>
      <point x="5" y="705"/>
      <point x="5" y="707" type="curve" smooth="yes"/>
      <point x="5" y="793" type="line" smooth="yes"/>
      <point x="5" y="795"/>
      <point x="5" y="795"/>
      <point x="7" y="795" type="curve"/>
    </contour>
  </outline>
</glyph>
<glyph name="dotaccent" format="2">
  <advance width="600"/>
  <unicode hex="02D9"/>
  <outline>
    <contour>
      <point x="207.25" y="795" type="line"/>
      <point x="292.75" y="795" type="line" smooth="yes"/>
      <point x="295" y="795"/>
      <point x="295" y="795"/>
      <point x="295" y="792.75" type="curve" smooth="yes"/>
      <point x="295" y="707.25" type="line" smooth="yes"/>
      <point x="295" y="705"/>
      <point x="295" y="705"/>
      <point x="292.75" y="705" type="curve" smooth="yes"/>
      <point x="207.25" y="705" type="line" smooth="yes"/>
      <point x="205" y="705"/>
      <point x="205" y="705"/>
      <point x="205" y="707.25" type="curve" smooth="yes"/>
      <point x="205" y="792.75" type="line" smooth="yes"/>
      <point x="205" y="795"/>
      <point x="205" y="795"/>
      <point x="207.25" y="795" type="curve"/>
    </contour>
  </outline>
</glyph>
<glyph name="acutecomb" format="2">
  <advance width="600"/>
  <unicode hex="0301"/>
  <outline>
    <contour>
      <point x="207" y="695" type="line"/>
      <point x="293" y="695" type="line" smooth="yes"/>
      <point x="295" y="695"/>
      <point x="295" y="695"/>
      <point x="295" y="693" type="curve" smooth="yes"/>
      <point x="295" y="607" type="line" smooth="yes"/>
      <point x="295" y="605"/>
      <point x="295" y="605"/>
      <point x="293" y="605" type="curve" smooth="yes"/>
      <point x="207" y="605" type="line" smooth="yes"/>
      <point x="205" y="605"/>
      <point x="205" y="605"/>
      <point x="205" y="607" type="curve" smooth="yes"/>
      <point x="205" y="693" type="line" smooth="yes"/>
      <point x="205" y="695"/>
      <point x="205" y="695"/>
      <point x="207" y="695" type="curve"/>
    </contour>
    <contour>
      <point x="307" y="795" type="line"/>
      <point x="393" y="795" type="line" smooth="yes"/>
      <point x="395" y="795"/>
      <point x="395" y="795"/>
      <point x="395" y="793" type="curve" smooth="yes"/>
      <point x="395" y="707" type="line" smooth="yes"/>
      <point x="395" y="705"/>
      <point x="395" y="705"/>
      <point x="393" y="705" type="curve" smooth="yes"/>
      <point x="307" y="705" type="line" smooth="yes"/>
      <point x="305" y="705"/>
      <point x="305" y="705"/>
      <point x="305" y="707" type="curve" smooth="yes"/>
      <point x="305" y="793" type="line" smooth="yes"/>
      <point x="305" y="795"/>
      <point x="305" y="795"/>
      <point x="307" y="795" type="curve"/>
    </contour>
  </outline>
</glyph>
<glyph name="uni0308" format="2">
  <advance width="600"/>
  <unicode hex="0308"/>
  <outline>
    <contour>
      <point x="307.25" y="795" type="line"/>
      <point x="392.75" y="795" type="line" smooth="yes"/>
      <point x="395" y="795"/>
      <point x="395" y="795"/>
      <point x="395" y="792.75" type="curve" smooth="yes"/>
      <point x="395" y="707.25" type="line" smooth="yes"/>
      <point x="395" y="705"/>
      <point x="395" y="705"/>
      <point x="392.75" y="705" type="curve" smooth="yes"/>
      <point x="307.25" y="705" type="line" smooth="yes"/>
      <point x="305" y="705"/>
      <point x="305" y="705"/>
      <point x="305" y="707.25" type="curve" smooth="yes"/>
      <point x="305" y="792.75" type="line" smooth="yes"/>
      <point x="305" y="795"/>
      <point x="305" y="795"/>
      <point x="307.25" y="795" type="curve"/>
    </contour>
    <contour>
      <point x="107.25" y="795" type="line"/>
      <point x="192.75" y="795" type="line" smooth="yes"/>
      <point x="195" y="795"/>
      <point x="195" y="795"/>
      <point x="195" y="792.75" type="curve" smooth="yes"/>
      <point x="195" y="707.25" type="line" smooth="yes"/>
      <point x="195" y="705"/>
      <point x="195" y="705"/>
      <point x="192.75" y="705" type="curve" smooth="yes"/>
      <point x="107.25" y="705" type="line" smooth="yes"/>
      <point x="105" y="705"/>
      <point x="105" y="705"/>
      <point x="105" y="707.25" type="curve" smooth="yes"/>
      <point x="105" y="792.75" type="line" smooth="yes"/>
      <point x="105" y="795"/>
      <point x="105" y="795"/>
      <point x="107.25" y="795" type="curve"/>
    </contour>
  </outline>
</glyph>
<glyph name="uni030A" format="2">
  <advance width="600"/>
  <unicode hex="030A"/>
  <outline>
    <contour>
      <point x="207.25" y="595" type="line"/>
      <point x="292.75" y="595" type="line" smooth="yes"/>
      <point x="295" y="595"/>
      <point x="295" y="595"/>
      <point x="295" y="592.75" type="curve" smooth="yes"/>
      <point x="295" y="507.25" type="line" smooth="yes"/>
      <point x="295" y="505"/>
      <point x="295" y="505"/>
      <point x="292.75" y="505" type="curve" smooth="yes"/>
      <point x="207.25" y="505" type="line" smooth="yes"/>
      <point x="205" y="505"/>
      <point x="205" y="505"/>
      <point x="205" y="507.25" type="curve" smooth="yes"/>
      <point x="205" y="592.75" type="line" smooth="yes"/>
      <point x="205" y="595"/>
      <point x="205" y="595"/>
      <point x="207.25" y="595" type="curve"/>
    </contour>
    <contour>
      <point x="307.25" y="695" type="line"/>
      <point x="392.75" y="695" type="line" smooth="yes"/>
      <point x="395" y="695"/>
      <point x="395" y="695"/>
      <point x="395" y="692.75" type="curve" smooth="yes"/>
      <point x="395" y="607.25" type="line" smooth="yes"/>
      <point x="395" y="605"/>
      <point x="395" y="605"/>
      <point x="392.75" y="605" type="curve" smooth="yes"/>
      <point x="307.25" y="605" type="line" smooth="yes"/>
      <point x="305" y="605"/>
      <point x="305" y="605"/>
      <point x="305" y="607.25" type="curve" smooth="yes"/>
      <point x="305" y="692.75" type="line" smooth="yes"/>
      <point x="305" y="695"/>
      <point x="305" y="695"/>
      <point x="307.25" y="695" type="curve"/>
    </contour>
    <contour>
      <point x="107.25" y="695" type="line"/>
      <point x="192.75" y="695" type="line" smooth="yes"/>
      <point x="195" y="695"/>
      <point x="195" y="695"/>
      <point x="195" y="692.75" type="curve" smooth="yes"/>
      <point x="195" y="607.25" type="line" smooth="yes"/>
      <point x="195" y="605"/>
      <point x="195" y="605"/>
      <point x="192.75" y="605" type="curve" smooth="yes"/>
      <point x="107.25" y="605" type="line" smooth="yes"/>
      <point x="105" y="605"/>
      <point x="105" y="605"/>
      <point x="105" y="607.25" type="curve" smooth="yes"/>
      <point x="105" y="692.75" type="line" smooth="yes"/>
      <point x="105" y="695"/>
      <point x="105" y="695"/>
      <point x="107.25" y="695" type="curve"/>
    </contour>
    <contour>
      <point x="207.25" y="795" type="line"/>
      <point x="292.75" y="795" type="line" smooth="yes"/>
      <point x="295" y="795"/>
      <point x="295" y="795"/>
      <point x="295" y="792.75" type="curve" smooth="yes"/>
      <point x="295" y="707.25" type="line" smooth="yes"/>
      <point x="295" y="705"/>
      <point x="295" y="705"/>
      <point x="292.75" y="705" type="curve" smooth="yes"/>
      <point x="207.25" y="705" type="line" smooth="yes"/>
      <point x="205" y="705"/>
      <point x="205" y="705"/>
      <point x="205" y="707.25" type="curve" smooth="yes"/>
      <point x="205" y="792.75" type="line" smooth="yes"/>
      <point x="205" y="795"/>
      <point x="205" y="795"/>
      <point x="207.25" y="795" type="curve"/>
    </contour>
  </outline>
</glyph>
<glyph name="uni0327" format="2">
  <advance width="600"/>
  <unicode hex="0327"/>
  <outline>
    <contour>
      <point x="107.25" y="-105" type="line"/>
      <point x="192.75" y="-105" type="line" smooth="yes"/>
      <point x="195" y="-105"/>
      <point x="195" y="-105"/>
      <point x="195" y="-107.25" type="curve" smooth="yes"/>
      <point x="195" y="-192.75" type="line" smooth="yes"/>
      <point x="195" y="-195"/>
      <point x="195" y="-195"/>
      <point x="192.75" y="-195" type="curve" smooth="yes"/>
      <point x="107.25" y="-195" type="line" smooth="yes"/>
      <point x="105" y="-195"/>
      <point x="105" y="-195"/>
      <point x="105" y="-192.75" type="curve" smooth="yes"/>
      <point x="105" y="-107.25" type="line" smooth="yes"/>
      <point x="105" y="-105"/>
      <point x="105" y="-105"/>
      <point x="107.25" y="-105" type="curve"/>
    </contour>
    <contour>
      <point x="207.25" y="-5" type="line"/>
      <point x="292.75" y="-5" type="line" smooth="yes"/>
      <point x="295" y="-5"/>
      <point x="295" y="-5"/>
      <point x="295" y="-7.25" type="curve" smooth="yes"/>
      <point x="295" y="-92.75" type="line" smooth="yes"/>
      <point x="295" y="-95"/>
      <point x="295" y="-95"/>
      <point x="292.75" y="-95" type="curve" smooth="yes"/>
      <point x="207.25" y="-95" type="line" smooth="yes"/>
      <point x="205" y="-95"/>
      <point x="205" y="-95"/>
      <point x="205" y="-92.75" type="curve" smooth="yes"/>
      <point x="205" y="-7.25" type="line" smooth="yes"/>
      <point x="205" y="-5"/>
      <point x="205" y="-5"/>
      <point x="207.25" y="-5" type="curve"/>
    </contour>
  </outline>
</glyph>
<glyph name="quotedblright" format="2">
  <advance width="600"/>
  <unicode hex="201D"/>
  <outline>
    <contour>
      <point x="307.25" y="495" type="line"/>
      <point x="392.75" y="495" type="line" smooth="yes"/>
      <point x="395" y="495"/>
      <point x="395" y="495"/>
      <point x="395" y="492.75" type="curve" smooth="yes"/>
      <point x="395" y="407.25" type="line" smooth="yes"/>
      <point x="395" y="405"/>
      <point x="395" y="405"/>
      <point x="392.75" y="405" type="curve" smooth="yes"/>
      <point x="307.25" y="405" type="line" smooth="yes"/>
      <point x="305" y="405"/>
      <point x="305" y="405"/>
      <point x="305" y="407.25" type="curve" smooth="yes"/>
      <point x="305" y="492.75" type="line" smooth="yes"/>
      <point x="305" y="495"/>
      <point x="305" y="495"/>
      <point x="307.25" y="495" type="curve"/>
    </contour>
    <contour>
      <point x="7.25" y="495" type="line"/>
      <point x="92.75" y="495" type="line" smooth="yes"/>
      <point x="95" y="495"/>
      <point x="95" y="495"/>
      <point x="95" y="492.75" type="curve" smooth="yes"/>
      <point x="95" y="407.25" type="line" smooth="yes"/>
      <point x="95" y="405"/>
      <point x="95" y="405"/>
      <point x="92.75" y="405" type="curve" smooth="yes"/>
      <point x="7.25" y="405" type="line" smooth="yes"/>
      <point x="5" y="405"/>
      <point x="5" y="405"/>
      <point x="5" y="407.25" type="curve" smooth="yes"/>
      <point x="5" y="492.75" type="line" smooth="yes"/>
      <point x="5" y="495"/>
      <point x="5" y="495"/>
      <point x="7.25" y="495" type="curve"/>
    </contour>
    <contour>
      <point x="407.25" y="595" type="line"/>
      <point x="492.75" y="595" type="line" smooth="yes"/>
      <point x="495" y="595"/>
      <point x="495" y="595"/>
      <point x="495" y="592.75" type="curve" smooth="yes"/>
      <point x="495" y="507.25" type="line" smooth="yes"/>
      <point x="495" y="505"/>
      <point x="495" y="505"/>
      <point x="492.75" y="505" type="curve" smooth="yes"/>
      <point x="407.25" y="505" type="line" smooth="yes"/>
      <point x="405" y="505"/>
      <point x="405" y="505"/>
      <point x="405" y="507.25" type="curve" smooth="yes"/>
      <point x="405" y="592.75" type="line" smooth="yes"/>
      <point x="405" y="595"/>
      <point x="405" y="595"/>
      <point x="407.25" y="595" type="curve"/>
    </contour>
    <contour>
      <point x="107.25" y="595" type="line"/>
      <point x="192.75" y="595" type="line" smooth="yes"/>
      <point x="195" y="595"/>
      <point x="195" y="595"/>
      <point x="195" y="592.75" type="curve" smooth="yes"/>
      <point x="195" y="507.25" type="line" smooth="yes"/>
      <point x="195" y="505"/>
      <point x="195" y="505"/>
      <point x="192.75" y="505" type="curve" smooth="yes"/>
      <point x="107.25" y="505" type="line" smooth="yes"/>
      <point x="105" y="505"/>
      <point x="105" y="505"/>
      <point x="105" y="507.25" type="curve" smooth="yes"/>
      <point x="105" y="592.75" type="line" smooth="yes"/>
      <point x="105" y="595"/>
      <point x="105" y="595"/>
      <point x="107.25" y="595" type="curve"/>
    </contour>
    <contour>
      <point x="407.25" y="695" type="line"/>
      <point x="492.75" y="695" type="line" smooth="yes"/>
      <point x="495" y="695"/>
      <point x="495" y="695"/>
      <point x="495" y="692.75" type="curve" smooth="yes"/>
      <point x="495" y="607.25" type="line" smooth="yes"/>
      <point x="495" y="605"/>
      <point x="495" y="605"/>
      <point x="492.75" y="605" type="curve" smooth="yes"/>
      <point x="407.25" y="605" type="line" smooth="yes"/>
      <point x="405" y="605"/>
      <point x="405" y="605"/>
      <point x="405" y="607.25" type="curve" smooth="yes"/>
      <point x="405" y="692.75" type="line" smooth="yes"/>
      <point x="405" y="695"/>
      <point x="405" y="695"/>
      <point x="407.25" y="695" type="curve"/>
    </contour>
    <contour>
      <point x="307.25" y="695" type="line"/>
      <point x="392.75" y="695" type="line" smooth="yes"/>
      <point x="395" y="695"/>
      <point x="395" y="695"/>
      <point x="395" y="692.75" type="curve" smooth="yes"/>
      <point x="395" y="607.25" type="line" smooth="yes"/>
      <point x="395" y="605"/>
      <point x="395" y="605"/>
      <point x="392.75" y="605" type="curve" smooth="yes"/>
      <point x="307.25" y="605" type="line" smooth="yes"/>
      <point x="305" y="605"/>
      <point x="305" y="605"/>
      <point x="305" y="607.25" type="curve" smooth="yes"/>
      <point x="305" y="692.75" type="line" smooth="yes"/>
      <point x="305" y="695"/>
      <point x="305" y="695"/>
      <point x="307.25" y="695" type="curve"/>
    </contour>
    <contour>
      <point x="107.25" y="695" type="line"/>
      <point x="192.75" y="695" type="line" smooth="yes"/>
      <point x="195" y="695"/>
      <point x="195" y="695"/>
      <point x="195" y="692.75" type="curve" smooth="yes"/>
      <point x="195" y="607.25" type="line" smooth="yes"/>
      <point x="195" y="605"/>
      <point x="195" y="605"/>
      <point x="192.75" y="605" type="curve" smooth="yes"/>
      <point x="107.25" y="605" type="line" smooth="yes"/>
      <point x="105" y="605"/>
      <point x="105" y="605"/>
      <point x="105" y="607.25" type="curve" smooth="yes"/>
      <point x="105" y="692.75" type="line" smooth="yes"/>
      <point x="105" y="695"/>
      <point x="105" y="695"/>
      <point x="107.25" y="695" type="curve"/>
    </contour>
    <contour>
      <point x="7.25" y="695" type="line"/>
      <point x="92.75" y="695" type="line" smooth="yes"/>
      <point x="95" y="695"/>
      <point x="95" y="695"/>
      <point x="95" y="692.75" type="curve" smooth="yes"/>
      <point x="95" y="607.25" type="line" smooth="yes"/>
      <point x="95" y="605"/>
      <point x="95" y="605"/>
      <point x="92.75" y="605" type="curve" smooth="yes"/>
      <point x="7.25" y="605" type="line" smooth="yes"/>
      <point x="5" y="605"/>
      <point x="5" y="605"/>
      <point x="5" y="607.25" type="curve" smooth="yes"/>
      <point x="5" y="692.75" type="line" smooth="yes"/>
      <point x="5" y="695"/>
      <point x="5" y="695"/>
      <point x="7.25" y="695" type="curve"/>
    </contour>
  </outline>
</glyph>
